<svg width="2300" height="2308" viewBox="0 0 2300 2308" fill="none" xmlns="http://www.w3.org/2000/svg">
<g filter="url(#filter0_ddd_959_45)">
<path d="M1150 0L2145.93 575V1725L1150 2300L154.071 1725V575L1150 0Z" fill="url(#paint0_linear_959_45)"/>
</g>
<path d="M2011.03 652.886V1647.11L1150 2144.23L288.975 1647.11V652.886L1150 155.773L2011.03 652.886Z" stroke="#FF960D" stroke-width="10"/>
<g filter="url(#filter1_ddd_959_45)">
<path d="M695.82 714.33C690.913 717.857 684.627 720.387 676.96 721.92C669.447 723.453 661.703 724.22 653.73 724.22C644.07 724.22 634.87 722.763 626.13 719.85C617.543 716.783 609.953 711.953 603.36 705.36C596.767 698.613 591.477 689.95 587.49 679.37C583.657 668.637 581.74 655.68 581.74 640.5C581.74 624.707 583.887 611.52 588.18 600.94C592.627 590.207 598.3 581.62 605.2 575.18C612.253 568.587 620.073 563.91 628.66 561.15C637.247 558.237 645.833 556.78 654.42 556.78C663.62 556.78 671.363 557.393 677.65 558.62C684.09 559.847 689.38 561.303 693.52 562.99L687.31 589.67C683.783 587.983 679.567 586.757 674.66 585.99C669.907 585.223 664.08 584.84 657.18 584.84C644.453 584.84 634.18 589.363 626.36 598.41C618.693 607.457 614.86 621.487 614.86 640.5C614.86 648.78 615.78 656.37 617.62 663.27C619.46 670.017 622.22 675.843 625.9 680.75C629.733 685.503 634.41 689.26 639.93 692.02C645.603 694.627 652.12 695.93 659.48 695.93C666.38 695.93 672.207 695.24 676.96 693.86C681.713 692.48 685.853 690.717 689.38 688.57L695.82 714.33ZM700.756 663.5C700.756 644.027 705.509 629.077 715.016 618.65C724.523 608.07 737.863 602.78 755.036 602.78C764.236 602.78 772.209 604.237 778.956 607.15C785.703 610.063 791.299 614.203 795.746 619.57C800.193 624.783 803.489 631.147 805.636 638.66C807.936 646.173 809.086 654.453 809.086 663.5C809.086 682.973 804.333 698 794.826 708.58C785.473 719.007 772.209 724.22 755.036 724.22C745.836 724.22 737.863 722.763 731.116 719.85C724.369 716.937 718.696 712.873 714.096 707.66C709.649 702.293 706.276 695.853 703.976 688.34C701.829 680.827 700.756 672.547 700.756 663.5ZM731.576 663.5C731.576 668.56 732.036 673.237 732.956 677.53C733.876 681.823 735.256 685.58 737.096 688.8C738.936 692.02 741.313 694.55 744.226 696.39C747.293 698.077 750.896 698.92 755.036 698.92C762.856 698.92 768.683 696.083 772.516 690.41C776.349 684.737 778.266 675.767 778.266 663.5C778.266 652.92 776.503 644.41 772.976 637.97C769.449 631.377 763.469 628.08 755.036 628.08C747.676 628.08 741.926 630.84 737.786 636.36C733.646 641.88 731.576 650.927 731.576 663.5ZM858.561 606V671.32C858.561 680.673 859.635 687.42 861.781 691.56C864.081 695.7 868.451 697.77 874.891 697.77C880.565 697.77 885.241 696.083 888.921 692.71C892.755 689.337 895.591 685.197 897.431 680.29V606H927.331V686.04C927.331 692.327 927.638 698.537 928.251 704.67C928.865 710.65 929.785 716.093 931.011 721H908.471L903.181 703.98H902.261C898.735 709.807 893.828 714.637 887.541 718.47C881.255 722.303 873.818 724.22 865.231 724.22C859.405 724.22 854.191 723.453 849.591 721.92C844.991 720.387 841.158 717.857 838.091 714.33C835.025 710.803 832.648 706.05 830.961 700.07C829.428 694.09 828.661 686.577 828.661 677.53V606H858.561ZM1023.95 721V655.68C1023.95 646.327 1022.57 639.58 1019.81 635.44C1017.2 631.3 1012.68 629.23 1006.24 629.23C1000.57 629.23 995.738 630.917 991.751 634.29C987.918 637.51 985.158 641.573 983.471 646.48V721H953.571V606H977.261L980.711 621.18H981.631C985.158 616.273 989.834 611.98 995.661 608.3C1001.49 604.62 1009 602.78 1018.2 602.78C1023.87 602.78 1028.93 603.547 1033.38 605.08C1037.83 606.613 1041.58 609.143 1044.65 612.67C1047.72 616.197 1050.02 621.027 1051.55 627.16C1053.08 633.14 1053.85 640.577 1053.85 649.47V721H1023.95ZM1126.51 689.26C1126.51 686.193 1125.21 683.74 1122.6 681.9C1120 680.06 1116.78 678.373 1112.94 676.84C1109.11 675.307 1104.89 673.773 1100.29 672.24C1095.69 670.553 1091.48 668.33 1087.64 665.57C1083.81 662.657 1080.59 659.053 1077.98 654.76C1075.38 650.313 1074.07 644.64 1074.07 637.74C1074.07 626.393 1077.45 617.73 1084.19 611.75C1090.94 605.77 1100.68 602.78 1113.4 602.78C1122.14 602.78 1130.04 603.7 1137.09 605.54C1144.15 607.38 1149.67 609.45 1153.65 611.75L1146.98 633.37C1143.46 631.99 1139.01 630.533 1133.64 629C1128.28 627.467 1122.83 626.7 1117.31 626.7C1108.42 626.7 1103.97 630.15 1103.97 637.05C1103.97 639.81 1105.28 642.033 1107.88 643.72C1110.49 645.407 1113.71 647.017 1117.54 648.55C1121.38 649.93 1125.59 651.463 1130.19 653.15C1134.79 654.837 1139.01 657.06 1142.84 659.82C1146.68 662.427 1149.9 665.877 1152.5 670.17C1155.11 674.463 1156.41 679.983 1156.41 686.73C1156.41 698.383 1152.66 707.583 1145.14 714.33C1137.78 720.923 1126.67 724.22 1111.79 724.22C1103.67 724.22 1096 723.147 1088.79 721C1081.74 719.007 1075.99 716.63 1071.54 713.87L1079.82 691.56C1083.35 693.553 1088.03 695.547 1093.85 697.54C1099.68 699.38 1105.66 700.3 1111.79 700.3C1116.24 700.3 1119.77 699.457 1122.37 697.77C1125.13 696.083 1126.51 693.247 1126.51 689.26ZM1267.93 711.11C1263.33 714.79 1257.05 717.933 1249.07 720.54C1241.25 722.993 1232.9 724.22 1224 724.22C1205.45 724.22 1191.88 718.853 1183.29 708.12C1174.71 697.233 1170.41 682.36 1170.41 663.5C1170.41 643.26 1175.24 628.08 1184.9 617.96C1194.56 607.84 1208.13 602.78 1225.61 602.78C1231.44 602.78 1237.11 603.547 1242.63 605.08C1248.15 606.613 1253.06 609.143 1257.35 612.67C1261.65 616.197 1265.1 620.95 1267.7 626.93C1270.31 632.91 1271.61 640.347 1271.61 649.24C1271.61 652.46 1271.38 655.91 1270.92 659.59C1270.62 663.27 1270.08 667.103 1269.31 671.09H1200.31C1200.77 680.75 1203.23 688.033 1207.67 692.94C1212.27 697.847 1219.63 700.3 1229.75 700.3C1236.04 700.3 1241.64 699.38 1246.54 697.54C1251.6 695.547 1255.44 693.553 1258.04 691.56L1267.93 711.11ZM1225.15 626.7C1217.33 626.7 1211.51 629.077 1207.67 633.83C1203.99 638.43 1201.77 644.64 1201 652.46H1243.78C1244.4 644.18 1243.09 637.817 1239.87 633.37C1236.81 628.923 1231.9 626.7 1225.15 626.7ZM1323.55 682.36C1323.55 687.727 1324.24 691.637 1325.62 694.09C1327 696.543 1329.22 697.77 1332.29 697.77C1334.13 697.77 1335.89 697.617 1337.58 697.31C1339.42 697.003 1341.64 696.313 1344.25 695.24L1347.47 718.7C1345.02 719.927 1341.26 721.153 1336.2 722.38C1331.14 723.607 1325.93 724.22 1320.56 724.22C1311.82 724.22 1305.15 722.227 1300.55 718.24C1295.95 714.1 1293.65 707.353 1293.65 698V560H1323.55V682.36ZM1391.16 682.36C1391.16 687.727 1391.85 691.637 1393.23 694.09C1394.61 696.543 1396.83 697.77 1399.9 697.77C1401.74 697.77 1403.5 697.617 1405.19 697.31C1407.03 697.003 1409.25 696.313 1411.86 695.24L1415.08 718.7C1412.63 719.927 1408.87 721.153 1403.81 722.38C1398.75 723.607 1393.54 724.22 1388.17 724.22C1379.43 724.22 1372.76 722.227 1368.16 718.24C1363.56 714.1 1361.26 707.353 1361.26 698V560H1391.16V682.36ZM1430.48 606H1460.38V721H1430.48V606ZM1426.11 573.57C1426.11 569.123 1427.72 565.367 1430.94 562.3C1434.31 559.08 1438.91 557.47 1444.74 557.47C1450.56 557.47 1455.24 559.08 1458.77 562.3C1462.45 565.367 1464.29 569.123 1464.29 573.57C1464.29 578.017 1462.45 581.773 1458.77 584.84C1455.24 587.753 1450.56 589.21 1444.74 589.21C1438.91 589.21 1434.31 587.753 1430.94 584.84C1427.72 581.773 1426.11 578.017 1426.11 573.57ZM1560.09 721V655.68C1560.09 646.327 1558.71 639.58 1555.95 635.44C1553.35 631.3 1548.82 629.23 1542.38 629.23C1536.71 629.23 1531.88 630.917 1527.89 634.29C1524.06 637.51 1521.3 641.573 1519.61 646.48V721H1489.71V606H1513.4L1516.85 621.18H1517.77C1521.3 616.273 1525.98 611.98 1531.8 608.3C1537.63 604.62 1545.14 602.78 1554.34 602.78C1560.02 602.78 1565.08 603.547 1569.52 605.08C1573.97 606.613 1577.73 609.143 1580.79 612.67C1583.86 616.197 1586.16 621.027 1587.69 627.16C1589.23 633.14 1589.99 640.577 1589.99 649.47V721H1560.09ZM1712.34 721C1712.34 737.713 1707.81 749.98 1698.77 757.8C1689.72 765.773 1677.07 769.76 1660.82 769.76C1649.78 769.76 1641.04 768.993 1634.6 767.46C1628.31 765.927 1623.56 764.317 1620.34 762.63L1626.55 738.94C1630.07 740.32 1634.14 741.7 1638.74 743.08C1643.49 744.46 1649.32 745.15 1656.22 745.15C1666.64 745.15 1673.7 742.85 1677.38 738.25C1681.21 733.803 1683.13 727.517 1683.13 719.39V712.03H1682.21C1676.84 719.237 1667.33 722.84 1653.69 722.84C1638.81 722.84 1627.7 718.24 1620.34 709.04C1613.13 699.84 1609.53 685.427 1609.53 665.8C1609.53 645.253 1614.43 629.69 1624.25 619.11C1634.06 608.53 1648.32 603.24 1667.03 603.24C1676.84 603.24 1685.58 603.93 1693.25 605.31C1701.07 606.69 1707.43 608.3 1712.34 610.14V721ZM1661.74 698.92C1667.56 698.92 1672.01 697.617 1675.08 695.01C1678.3 692.403 1680.75 688.493 1682.44 683.28V631.53C1677.68 629.537 1671.78 628.54 1664.73 628.54C1657.06 628.54 1651.08 631.453 1646.79 637.28C1642.49 642.953 1640.35 652.077 1640.35 664.65C1640.35 675.843 1642.19 684.353 1645.87 690.18C1649.55 696.007 1654.84 698.92 1661.74 698.92Z" fill="white"/>
</g>
<g filter="url(#filter2_ddd_959_45)">
<path d="M760.4 1210.6C747.6 1219.8 731.2 1226.4 711.2 1230.4C691.6 1234.4 671.4 1236.4 650.6 1236.4C625.4 1236.4 601.4 1232.6 578.6 1225C556.2 1217 536.4 1204.4 519.2 1187.2C502 1169.6 488.2 1147 477.8 1119.4C467.8 1091.4 462.8 1057.6 462.8 1018C462.8 976.8 468.4 942.4 479.6 914.8C491.2 886.8 506 864.4 524 847.6C542.4 830.4 562.8 818.2 585.2 811C607.6 803.4 630 799.6 652.4 799.6C676.4 799.6 696.6 801.2 713 804.4C729.8 807.6 743.6 811.4 754.4 815.8L738.2 885.4C729 881 718 877.8 705.2 875.8C692.8 873.8 677.6 872.8 659.6 872.8C626.4 872.8 599.6 884.6 579.2 908.2C559.2 931.8 549.2 968.4 549.2 1018C549.2 1039.6 551.6 1059.4 556.4 1077.4C561.2 1095 568.4 1110.2 578 1123C588 1135.4 600.2 1145.2 614.6 1152.4C629.4 1159.2 646.4 1162.6 665.6 1162.6C683.6 1162.6 698.8 1160.8 711.2 1157.2C723.6 1153.6 734.4 1149 743.6 1143.4L760.4 1210.6ZM778.034 1018C778.034 948 793.434 894.2 824.234 856.6C855.034 818.6 899.034 799.6 956.234 799.6C986.234 799.6 1012.43 804.8 1034.83 815.2C1057.23 825.6 1075.83 840.4 1090.63 859.6C1105.43 878.8 1116.43 901.8 1123.63 928.6C1130.83 955.4 1134.43 985.2 1134.43 1018C1134.43 1088 1118.83 1142 1087.63 1180C1056.83 1217.6 1013.03 1236.4 956.234 1236.4C925.834 1236.4 899.434 1231.2 877.034 1220.8C854.634 1210.4 836.034 1195.6 821.234 1176.4C806.834 1157.2 796.034 1134.2 788.834 1107.4C781.634 1080.6 778.034 1050.8 778.034 1018ZM864.434 1018C864.434 1039.2 866.234 1058.8 869.834 1076.8C873.434 1094.4 878.834 1109.6 886.034 1122.4C893.634 1135.2 903.234 1145.2 914.834 1152.4C926.434 1159.6 940.234 1163.2 956.234 1163.2C985.434 1163.2 1008.03 1151.8 1024.03 1129C1040.03 1106.2 1048.03 1069.2 1048.03 1018C1048.03 997.6 1046.23 978.6 1042.63 961C1039.43 943.4 1034.23 928 1027.03 914.8C1019.83 901.6 1010.43 891.4 998.834 884.2C987.234 876.6 973.034 872.8 956.234 872.8C927.034 872.8 904.434 884.6 888.434 908.2C872.434 931.4 864.434 968 864.434 1018ZM1193.19 808C1201.59 806.8 1210.99 805.8 1221.39 805C1232.19 804.2 1243.19 803.6 1254.39 803.2C1265.59 802.8 1276.39 802.6 1286.79 802.6C1297.59 802.2 1307.19 802 1315.59 802C1352.79 802 1384.59 807.2 1410.99 817.6C1437.39 828 1458.79 842.6 1475.19 861.4C1491.59 880.2 1503.59 902.6 1511.19 928.6C1518.79 954.6 1522.59 983.2 1522.59 1014.4C1522.59 1042.8 1518.99 1070.2 1511.79 1096.6C1504.59 1123 1492.59 1146.4 1475.79 1166.8C1458.99 1187.2 1436.79 1203.6 1409.19 1216C1381.99 1228.4 1348.19 1234.6 1307.79 1234.6C1301.39 1234.6 1292.79 1234.4 1281.99 1234C1271.59 1233.6 1260.59 1233 1248.99 1232.2C1237.79 1231.8 1226.99 1231.2 1216.59 1230.4C1206.19 1230 1198.39 1229.4 1193.19 1228.6V808ZM1322.19 875.2C1313.39 875.2 1304.39 875.4 1295.19 875.8C1286.39 876.2 1279.79 876.8 1275.39 877.6V1159C1276.99 1159.4 1279.59 1159.8 1283.19 1160.2C1287.19 1160.2 1291.39 1160.4 1295.79 1160.8C1300.19 1160.8 1304.39 1161 1308.39 1161.4C1312.39 1161.4 1315.39 1161.4 1317.39 1161.4C1340.59 1161.4 1359.79 1157.4 1374.99 1149.4C1390.59 1141 1402.79 1130 1411.59 1116.4C1420.79 1102.8 1427.19 1087.2 1430.79 1069.6C1434.39 1051.6 1436.19 1033.2 1436.19 1014.4C1436.19 998 1434.59 981.6 1431.39 965.2C1428.19 948.4 1422.19 933.4 1413.39 920.2C1404.99 907 1393.39 896.2 1378.59 887.8C1363.79 879.4 1344.99 875.2 1322.19 875.2ZM1581.66 808H1830.66V881.2H1663.86V979H1815.66V1052.2H1663.86V1154.8H1833.66V1228H1581.66V808Z" fill="white"/>
</g>
<rect x="150" y="1282" width="2000" height="447" fill="url(#paint1_linear_959_45)"/>
<g filter="url(#filter3_ddd_959_45)">
<mask id="path-6-outside-1_959_45" maskUnits="userSpaceOnUse" x="663" y="1346" width="981" height="339" fill="black">
<rect fill="white" x="663" y="1346" width="981" height="339"/>
<path d="M738 1627.55C757.8 1627.55 772.95 1622.75 783.45 1613.15C793.95 1603.55 799.2 1590.35 799.2 1573.55C799.2 1555.55 793.05 1542.35 780.75 1533.95C768.45 1525.55 750.9 1521.35 728.1 1521.35L692.55 1522.7V1358H847.35V1412.9H742.95V1473.65L761.4 1471.85C776.1 1472.45 789.3 1475.15 801 1479.95C813 1484.75 823.2 1491.5 831.6 1500.2C840 1508.6 846.45 1518.95 850.95 1531.25C855.45 1543.25 857.7 1556.75 857.7 1571.75C857.7 1589.45 854.7 1605.05 848.7 1618.55C842.7 1632.05 834.3 1643.3 823.5 1652.3C813 1661.3 800.55 1668.05 786.15 1672.55C771.75 1677.05 756 1679.3 738.9 1679.3C725.4 1679.3 712.5 1678.1 700.2 1675.7C688.2 1673.6 678 1670.6 669.6 1666.7L685.35 1618.1C692.25 1621.1 699.75 1623.5 707.85 1625.3C716.25 1626.8 726.3 1627.55 738 1627.55ZM993.322 1627.55C1013.12 1627.55 1028.27 1622.75 1038.77 1613.15C1049.27 1603.55 1054.52 1590.35 1054.52 1573.55C1054.52 1555.55 1048.37 1542.35 1036.07 1533.95C1023.77 1525.55 1006.22 1521.35 983.422 1521.35L947.872 1522.7V1358H1102.67V1412.9H998.272V1473.65L1016.72 1471.85C1031.42 1472.45 1044.62 1475.15 1056.32 1479.95C1068.32 1484.75 1078.52 1491.5 1086.92 1500.2C1095.32 1508.6 1101.77 1518.95 1106.27 1531.25C1110.77 1543.25 1113.02 1556.75 1113.02 1571.75C1113.02 1589.45 1110.02 1605.05 1104.02 1618.55C1098.02 1632.05 1089.62 1643.3 1078.82 1652.3C1068.32 1661.3 1055.87 1668.05 1041.47 1672.55C1027.07 1677.05 1011.32 1679.3 994.222 1679.3C980.722 1679.3 967.822 1678.1 955.522 1675.7C943.522 1673.6 933.322 1670.6 924.922 1666.7L940.672 1618.1C947.572 1621.1 955.072 1623.5 963.172 1625.3C971.572 1626.8 981.622 1627.55 993.322 1627.55ZM1398.49 1585.25H1348.99V1673H1294.54V1585.25H1158.19V1551.95L1300.84 1355.75H1348.99V1538.45H1398.49V1585.25ZM1294.54 1469.6L1298.59 1431.8H1296.79L1281.49 1464.2L1234.69 1524.95L1212.19 1542.05L1240.99 1538.45H1294.54V1469.6ZM1638.97 1575.35C1638.97 1590.05 1636.42 1603.7 1631.32 1616.3C1626.52 1628.9 1619.62 1639.85 1610.62 1649.15C1601.62 1658.45 1590.67 1665.8 1577.77 1671.2C1565.17 1676.6 1551.22 1679.3 1535.92 1679.3C1520.32 1679.3 1505.92 1676.9 1492.72 1672.1C1479.82 1667 1468.57 1659.5 1458.97 1649.6C1449.37 1639.7 1441.87 1627.25 1436.47 1612.25C1431.07 1597.25 1428.37 1579.85 1428.37 1560.05C1428.37 1530.35 1432.57 1503.5 1440.97 1479.5C1449.67 1455.5 1461.22 1434.65 1475.62 1416.95C1490.32 1398.95 1507.27 1384.55 1526.47 1373.75C1545.97 1362.65 1566.52 1355.3 1588.12 1351.7L1601.17 1398.05C1586.17 1400.45 1572.37 1405.1 1559.77 1412C1547.17 1418.9 1535.92 1427.15 1526.02 1436.75C1516.42 1446.35 1508.17 1457.15 1501.27 1469.15C1494.67 1480.85 1490.02 1493 1487.32 1505.6C1493.32 1498.1 1501.12 1491.8 1510.72 1486.7C1520.32 1481.3 1532.32 1478.6 1546.72 1478.6C1560.22 1478.6 1572.67 1480.7 1584.07 1484.9C1595.47 1489.1 1605.22 1495.4 1613.32 1503.8C1621.42 1511.9 1627.72 1521.95 1632.22 1533.95C1636.72 1545.95 1638.97 1559.75 1638.97 1575.35ZM1582.27 1578.5C1582.27 1544.9 1565.77 1528.1 1532.77 1528.1C1520.77 1528.1 1510.57 1530.8 1502.17 1536.2C1494.07 1541.6 1488.37 1547.9 1485.07 1555.1C1484.47 1558.4 1484.17 1561.25 1484.17 1563.65C1484.17 1566.05 1484.17 1568.45 1484.17 1570.85C1484.17 1578.05 1485.22 1585.25 1487.32 1592.45C1489.42 1599.35 1492.42 1605.65 1496.32 1611.35C1500.52 1616.75 1505.77 1621.25 1512.07 1624.85C1518.37 1628.15 1525.87 1629.8 1534.57 1629.8C1548.67 1629.8 1560.07 1625 1568.77 1615.4C1577.77 1605.8 1582.27 1593.5 1582.27 1578.5Z"/>
</mask>
<path d="M738 1627.55C757.8 1627.55 772.95 1622.75 783.45 1613.15C793.95 1603.55 799.2 1590.35 799.2 1573.55C799.2 1555.55 793.05 1542.35 780.75 1533.95C768.45 1525.55 750.9 1521.35 728.1 1521.35L692.55 1522.7V1358H847.35V1412.9H742.95V1473.65L761.4 1471.85C776.1 1472.45 789.3 1475.15 801 1479.95C813 1484.75 823.2 1491.5 831.6 1500.2C840 1508.6 846.45 1518.95 850.95 1531.25C855.45 1543.25 857.7 1556.75 857.7 1571.75C857.7 1589.45 854.7 1605.05 848.7 1618.55C842.7 1632.05 834.3 1643.3 823.5 1652.3C813 1661.3 800.55 1668.05 786.15 1672.55C771.75 1677.05 756 1679.3 738.9 1679.3C725.4 1679.3 712.5 1678.1 700.2 1675.7C688.2 1673.6 678 1670.6 669.6 1666.7L685.35 1618.1C692.25 1621.1 699.75 1623.5 707.85 1625.3C716.25 1626.8 726.3 1627.55 738 1627.55ZM993.322 1627.55C1013.12 1627.55 1028.27 1622.75 1038.77 1613.15C1049.27 1603.55 1054.52 1590.35 1054.52 1573.55C1054.52 1555.55 1048.37 1542.35 1036.07 1533.95C1023.77 1525.55 1006.22 1521.35 983.422 1521.35L947.872 1522.7V1358H1102.67V1412.9H998.272V1473.65L1016.72 1471.85C1031.42 1472.45 1044.62 1475.15 1056.32 1479.95C1068.32 1484.75 1078.52 1491.5 1086.92 1500.2C1095.32 1508.6 1101.77 1518.95 1106.27 1531.25C1110.77 1543.25 1113.02 1556.75 1113.02 1571.75C1113.02 1589.45 1110.02 1605.05 1104.02 1618.55C1098.02 1632.05 1089.62 1643.3 1078.82 1652.3C1068.32 1661.3 1055.87 1668.05 1041.47 1672.55C1027.07 1677.05 1011.32 1679.3 994.222 1679.3C980.722 1679.3 967.822 1678.1 955.522 1675.7C943.522 1673.6 933.322 1670.6 924.922 1666.7L940.672 1618.1C947.572 1621.1 955.072 1623.5 963.172 1625.3C971.572 1626.8 981.622 1627.55 993.322 1627.55ZM1398.49 1585.25H1348.99V1673H1294.54V1585.25H1158.19V1551.95L1300.84 1355.75H1348.99V1538.45H1398.49V1585.25ZM1294.54 1469.6L1298.59 1431.8H1296.79L1281.49 1464.2L1234.69 1524.95L1212.19 1542.05L1240.99 1538.45H1294.54V1469.6ZM1638.97 1575.35C1638.97 1590.05 1636.42 1603.7 1631.32 1616.3C1626.52 1628.9 1619.62 1639.85 1610.62 1649.15C1601.62 1658.45 1590.67 1665.8 1577.77 1671.2C1565.17 1676.6 1551.22 1679.3 1535.92 1679.3C1520.32 1679.3 1505.92 1676.9 1492.72 1672.1C1479.82 1667 1468.57 1659.5 1458.97 1649.6C1449.37 1639.7 1441.87 1627.25 1436.47 1612.25C1431.07 1597.25 1428.37 1579.85 1428.37 1560.05C1428.37 1530.35 1432.57 1503.5 1440.97 1479.5C1449.67 1455.5 1461.22 1434.65 1475.62 1416.95C1490.32 1398.95 1507.27 1384.55 1526.47 1373.75C1545.97 1362.65 1566.52 1355.3 1588.12 1351.7L1601.17 1398.05C1586.17 1400.45 1572.37 1405.1 1559.77 1412C1547.17 1418.9 1535.92 1427.15 1526.02 1436.75C1516.42 1446.35 1508.17 1457.15 1501.27 1469.15C1494.67 1480.85 1490.02 1493 1487.32 1505.6C1493.32 1498.1 1501.12 1491.8 1510.72 1486.7C1520.32 1481.3 1532.32 1478.6 1546.72 1478.6C1560.22 1478.6 1572.67 1480.7 1584.07 1484.9C1595.47 1489.1 1605.22 1495.4 1613.32 1503.8C1621.42 1511.9 1627.72 1521.95 1632.22 1533.95C1636.72 1545.95 1638.97 1559.75 1638.97 1575.35ZM1582.27 1578.5C1582.27 1544.9 1565.77 1528.1 1532.77 1528.1C1520.77 1528.1 1510.57 1530.8 1502.17 1536.2C1494.07 1541.6 1488.37 1547.9 1485.07 1555.1C1484.47 1558.4 1484.17 1561.25 1484.17 1563.65C1484.17 1566.05 1484.17 1568.45 1484.17 1570.85C1484.17 1578.05 1485.22 1585.25 1487.32 1592.45C1489.42 1599.35 1492.42 1605.65 1496.32 1611.35C1500.52 1616.75 1505.77 1621.25 1512.07 1624.85C1518.37 1628.15 1525.87 1629.8 1534.57 1629.8C1548.67 1629.8 1560.07 1625 1568.77 1615.4C1577.77 1605.8 1582.27 1593.5 1582.27 1578.5Z" fill="black"/>
<path d="M783.45 1613.15L786.824 1616.84L786.824 1616.84L783.45 1613.15ZM780.75 1533.95L783.57 1529.82L783.57 1529.82L780.75 1533.95ZM728.1 1521.35V1516.35H728.005L727.91 1516.35L728.1 1521.35ZM692.55 1522.7H687.55V1527.89L692.74 1527.7L692.55 1522.7ZM692.55 1358V1353H687.55V1358H692.55ZM847.35 1358H852.35V1353H847.35V1358ZM847.35 1412.9V1417.9H852.35V1412.9H847.35ZM742.95 1412.9V1407.9H737.95V1412.9H742.95ZM742.95 1473.65H737.95V1479.16L743.436 1478.63L742.95 1473.65ZM761.4 1471.85L761.604 1466.85L761.259 1466.84L760.915 1466.87L761.4 1471.85ZM801 1479.95L799.102 1484.58L799.123 1484.58L799.143 1484.59L801 1479.95ZM831.6 1500.2L828.003 1503.67L828.033 1503.7L828.064 1503.74L831.6 1500.2ZM850.95 1531.25L846.254 1532.97L846.261 1532.99L846.268 1533.01L850.95 1531.25ZM823.5 1652.3L820.299 1648.46L820.272 1648.48L820.246 1648.5L823.5 1652.3ZM786.15 1672.55L787.641 1677.32L786.15 1672.55ZM700.2 1675.7L701.158 1670.79L701.11 1670.78L701.062 1670.77L700.2 1675.7ZM669.6 1666.7L664.844 1665.16L663.479 1669.37L667.494 1671.24L669.6 1666.7ZM685.35 1618.1L687.344 1613.51L682.292 1611.32L680.594 1616.56L685.35 1618.1ZM707.85 1625.3L706.765 1630.18L706.868 1630.2L706.971 1630.22L707.85 1625.3ZM738 1627.55V1632.55C758.558 1632.55 775.095 1627.56 786.824 1616.84L783.45 1613.15L780.076 1609.46C770.805 1617.94 757.042 1622.55 738 1622.55V1627.55ZM783.45 1613.15L786.824 1616.84C798.548 1606.12 804.2 1591.48 804.2 1573.55H799.2H794.2C794.2 1589.22 789.352 1600.98 780.076 1609.46L783.45 1613.15ZM799.2 1573.55H804.2C804.2 1554.29 797.529 1539.35 783.57 1529.82L780.75 1533.95L777.93 1538.08C788.571 1545.35 794.2 1556.81 794.2 1573.55H799.2ZM780.75 1533.95L783.57 1529.82C770.105 1520.63 751.408 1516.35 728.1 1516.35V1521.35V1526.35C750.392 1526.35 766.795 1530.47 777.93 1538.08L780.75 1533.95ZM728.1 1521.35L727.91 1516.35L692.36 1517.7L692.55 1522.7L692.74 1527.7L728.29 1526.35L728.1 1521.35ZM692.55 1522.7H697.55V1358H692.55H687.55V1522.7H692.55ZM692.55 1358V1363H847.35V1358V1353H692.55V1358ZM847.35 1358H842.35V1412.9H847.35H852.35V1358H847.35ZM847.35 1412.9V1407.9H742.95V1412.9V1417.9H847.35V1412.9ZM742.95 1412.9H737.95V1473.65H742.95H747.95V1412.9H742.95ZM742.95 1473.65L743.436 1478.63L761.886 1476.83L761.4 1471.85L760.915 1466.87L742.465 1468.67L742.95 1473.65ZM761.4 1471.85L761.196 1476.85C775.408 1477.43 788.021 1480.03 799.102 1484.58L801 1479.95L802.898 1475.32C790.579 1470.27 776.792 1467.47 761.604 1466.85L761.4 1471.85ZM801 1479.95L799.143 1484.59C810.533 1489.15 820.127 1495.52 828.003 1503.67L831.6 1500.2L835.197 1496.73C826.273 1487.48 815.467 1480.35 802.857 1475.31L801 1479.95ZM831.6 1500.2L828.064 1503.74C835.899 1511.57 841.978 1521.28 846.254 1532.97L850.95 1531.25L855.646 1529.53C850.922 1516.62 844.101 1505.63 835.136 1496.66L831.6 1500.2ZM850.95 1531.25L846.268 1533.01C850.525 1544.36 852.7 1557.25 852.7 1571.75H857.7H862.7C862.7 1556.25 860.375 1542.14 855.632 1529.49L850.95 1531.25ZM857.7 1571.75H852.7C852.7 1588.89 849.796 1603.77 844.131 1616.52L848.7 1618.55L853.269 1620.58C859.604 1606.33 862.7 1590.01 862.7 1571.75H857.7ZM848.7 1618.55L844.131 1616.52C838.426 1629.36 830.48 1639.97 820.299 1648.46L823.5 1652.3L826.701 1656.14C838.12 1646.63 846.974 1634.74 853.269 1620.58L848.7 1618.55ZM823.5 1652.3L820.246 1648.5C810.306 1657.02 798.47 1663.46 784.659 1667.78L786.15 1672.55L787.641 1677.32C802.63 1672.64 815.694 1665.58 826.754 1656.1L823.5 1652.3ZM786.15 1672.55L784.659 1667.78C770.801 1672.11 755.561 1674.3 738.9 1674.3V1679.3V1684.3C756.439 1684.3 772.699 1681.99 787.641 1677.32L786.15 1672.55ZM738.9 1679.3V1674.3C725.697 1674.3 713.119 1673.13 701.158 1670.79L700.2 1675.7L699.242 1680.61C711.881 1683.07 725.103 1684.3 738.9 1684.3V1679.3ZM700.2 1675.7L701.062 1670.77C689.365 1668.73 679.608 1665.83 671.706 1662.16L669.6 1666.7L667.494 1671.24C676.392 1675.37 687.035 1678.47 699.338 1680.63L700.2 1675.7ZM669.6 1666.7L674.356 1668.24L690.106 1619.64L685.35 1618.1L680.594 1616.56L664.844 1665.16L669.6 1666.7ZM685.35 1618.1L683.356 1622.69C690.577 1625.82 698.385 1628.32 706.765 1630.18L707.85 1625.3L708.935 1620.42C701.115 1618.68 693.923 1616.38 687.344 1613.51L685.35 1618.1ZM707.85 1625.3L706.971 1630.22C715.745 1631.79 726.105 1632.55 738 1632.55V1627.55V1622.55C726.495 1622.55 716.755 1621.81 708.729 1620.38L707.85 1625.3ZM1038.77 1613.15L1042.15 1616.84L1042.15 1616.84L1038.77 1613.15ZM1036.07 1533.95L1038.89 1529.82L1038.89 1529.82L1036.07 1533.95ZM983.422 1521.35V1516.35H983.327L983.233 1516.35L983.422 1521.35ZM947.872 1522.7H942.872V1527.89L948.062 1527.7L947.872 1522.7ZM947.872 1358V1353H942.872V1358H947.872ZM1102.67 1358H1107.67V1353H1102.67V1358ZM1102.67 1412.9V1417.9H1107.67V1412.9H1102.67ZM998.272 1412.9V1407.9H993.272V1412.9H998.272ZM998.272 1473.65H993.272V1479.16L998.758 1478.63L998.272 1473.65ZM1016.72 1471.85L1016.93 1466.85L1016.58 1466.84L1016.24 1466.87L1016.72 1471.85ZM1056.32 1479.95L1054.42 1484.58L1054.44 1484.58L1054.47 1484.59L1056.32 1479.95ZM1086.92 1500.2L1083.33 1503.67L1083.36 1503.7L1083.39 1503.74L1086.92 1500.2ZM1106.27 1531.25L1101.58 1532.97L1101.58 1532.99L1101.59 1533.01L1106.27 1531.25ZM1078.82 1652.3L1075.62 1648.46L1075.59 1648.48L1075.57 1648.5L1078.82 1652.3ZM1041.47 1672.55L1042.96 1677.32L1041.47 1672.55ZM955.522 1675.7L956.48 1670.79L956.432 1670.78L956.384 1670.77L955.522 1675.7ZM924.922 1666.7L920.166 1665.16L918.801 1669.37L922.817 1671.24L924.922 1666.7ZM940.672 1618.1L942.666 1613.51L937.614 1611.32L935.916 1616.56L940.672 1618.1ZM963.172 1625.3L962.088 1630.18L962.19 1630.2L962.293 1630.22L963.172 1625.3ZM993.322 1627.55V1632.55C1013.88 1632.55 1030.42 1627.56 1042.15 1616.84L1038.77 1613.15L1035.4 1609.46C1026.13 1617.94 1012.36 1622.55 993.322 1622.55V1627.55ZM1038.77 1613.15L1042.15 1616.84C1053.87 1606.12 1059.52 1591.48 1059.52 1573.55H1054.52H1049.52C1049.52 1589.22 1044.67 1600.98 1035.4 1609.46L1038.77 1613.15ZM1054.52 1573.55H1059.52C1059.52 1554.29 1052.85 1539.35 1038.89 1529.82L1036.07 1533.95L1033.25 1538.08C1043.89 1545.35 1049.52 1556.81 1049.52 1573.55H1054.52ZM1036.07 1533.95L1038.89 1529.82C1025.43 1520.63 1006.73 1516.35 983.422 1516.35V1521.35V1526.35C1005.71 1526.35 1022.12 1530.47 1033.25 1538.08L1036.07 1533.95ZM983.422 1521.35L983.233 1516.35L947.683 1517.7L947.872 1522.7L948.062 1527.7L983.612 1526.35L983.422 1521.35ZM947.872 1522.7H952.872V1358H947.872H942.872V1522.7H947.872ZM947.872 1358V1363H1102.67V1358V1353H947.872V1358ZM1102.67 1358H1097.67V1412.9H1102.67H1107.67V1358H1102.67ZM1102.67 1412.9V1407.9H998.272V1412.9V1417.9H1102.67V1412.9ZM998.272 1412.9H993.272V1473.65H998.272H1003.27V1412.9H998.272ZM998.272 1473.65L998.758 1478.63L1017.21 1476.83L1016.72 1471.85L1016.24 1466.87L997.787 1468.67L998.272 1473.65ZM1016.72 1471.85L1016.52 1476.85C1030.73 1477.43 1043.34 1480.03 1054.42 1484.58L1056.32 1479.95L1058.22 1475.32C1045.9 1470.27 1032.11 1467.47 1016.93 1466.85L1016.72 1471.85ZM1056.32 1479.95L1054.47 1484.59C1065.86 1489.15 1075.45 1495.52 1083.33 1503.67L1086.92 1500.2L1090.52 1496.73C1081.6 1487.48 1070.79 1480.35 1058.18 1475.31L1056.32 1479.95ZM1086.92 1500.2L1083.39 1503.74C1091.22 1511.57 1097.3 1521.28 1101.58 1532.97L1106.27 1531.25L1110.97 1529.53C1106.24 1516.62 1099.42 1505.63 1090.46 1496.66L1086.92 1500.2ZM1106.27 1531.25L1101.59 1533.01C1105.85 1544.36 1108.02 1557.25 1108.02 1571.75H1113.02H1118.02C1118.02 1556.25 1115.7 1542.14 1110.95 1529.49L1106.27 1531.25ZM1113.02 1571.75H1108.02C1108.02 1588.89 1105.12 1603.77 1099.45 1616.52L1104.02 1618.55L1108.59 1620.58C1114.93 1606.33 1118.02 1590.01 1118.02 1571.75H1113.02ZM1104.02 1618.55L1099.45 1616.52C1093.75 1629.36 1085.8 1639.97 1075.62 1648.46L1078.82 1652.3L1082.02 1656.14C1093.44 1646.63 1102.3 1634.74 1108.59 1620.58L1104.02 1618.55ZM1078.82 1652.3L1075.57 1648.5C1065.63 1657.02 1053.79 1663.46 1039.98 1667.78L1041.47 1672.55L1042.96 1677.32C1057.95 1672.64 1071.02 1665.58 1082.08 1656.1L1078.82 1652.3ZM1041.47 1672.55L1039.98 1667.78C1026.12 1672.11 1010.88 1674.3 994.222 1674.3V1679.3V1684.3C1011.76 1684.3 1028.02 1681.99 1042.96 1677.32L1041.47 1672.55ZM994.222 1679.3V1674.3C981.019 1674.3 968.441 1673.13 956.48 1670.79L955.522 1675.7L954.565 1680.61C967.203 1683.07 980.425 1684.3 994.222 1684.3V1679.3ZM955.522 1675.7L956.384 1670.77C944.687 1668.73 934.93 1665.83 927.028 1662.16L924.922 1666.7L922.817 1671.24C931.714 1675.37 942.357 1678.47 954.66 1680.63L955.522 1675.7ZM924.922 1666.7L929.679 1668.24L945.429 1619.64L940.672 1618.1L935.916 1616.56L920.166 1665.16L924.922 1666.7ZM940.672 1618.1L938.679 1622.69C945.9 1625.82 953.707 1628.32 962.088 1630.18L963.172 1625.3L964.257 1620.42C956.437 1618.68 949.245 1616.38 942.666 1613.51L940.672 1618.1ZM963.172 1625.3L962.293 1630.22C971.068 1631.79 981.428 1632.55 993.322 1632.55V1627.55V1622.55C981.817 1622.55 972.077 1621.81 964.051 1620.38L963.172 1625.3ZM1398.49 1585.25V1590.25H1403.49V1585.25H1398.49ZM1348.99 1585.25V1580.25H1343.99V1585.25H1348.99ZM1348.99 1673V1678H1353.99V1673H1348.99ZM1294.54 1673H1289.54V1678H1294.54V1673ZM1294.54 1585.25H1299.54V1580.25H1294.54V1585.25ZM1158.19 1585.25H1153.19V1590.25H1158.19V1585.25ZM1158.19 1551.95L1154.15 1549.01L1153.19 1550.32V1551.95H1158.19ZM1300.84 1355.75V1350.75H1298.3L1296.8 1352.81L1300.84 1355.75ZM1348.99 1355.75H1353.99V1350.75H1348.99V1355.75ZM1348.99 1538.45H1343.99V1543.45H1348.99V1538.45ZM1398.49 1538.45H1403.49V1533.45H1398.49V1538.45ZM1294.54 1469.6L1289.57 1469.07L1289.54 1469.33V1469.6H1294.54ZM1298.59 1431.8L1303.57 1432.33L1304.16 1426.8H1298.59V1431.8ZM1296.79 1431.8V1426.8H1293.63L1292.27 1429.66L1296.79 1431.8ZM1281.49 1464.2L1285.46 1467.25L1285.79 1466.82L1286.02 1466.34L1281.49 1464.2ZM1234.69 1524.95L1237.72 1528.93L1238.25 1528.53L1238.66 1528L1234.69 1524.95ZM1212.19 1542.05L1209.17 1538.07L1194.37 1549.32L1212.81 1547.01L1212.19 1542.05ZM1240.99 1538.45V1533.45H1240.68L1240.37 1533.49L1240.99 1538.45ZM1294.54 1538.45V1543.45H1299.54V1538.45H1294.54ZM1398.49 1585.25V1580.25H1348.99V1585.25V1590.25H1398.49V1585.25ZM1348.99 1585.25H1343.99V1673H1348.99H1353.99V1585.25H1348.99ZM1348.99 1673V1668H1294.54V1673V1678H1348.99V1673ZM1294.54 1673H1299.54V1585.25H1294.54H1289.54V1673H1294.54ZM1294.54 1585.25V1580.25H1158.19V1585.25V1590.25H1294.54V1585.25ZM1158.19 1585.25H1163.19V1551.95H1158.19H1153.19V1585.25H1158.19ZM1158.19 1551.95L1162.24 1554.89L1304.89 1358.69L1300.84 1355.75L1296.8 1352.81L1154.15 1549.01L1158.19 1551.95ZM1300.84 1355.75V1360.75H1348.99V1355.75V1350.75H1300.84V1355.75ZM1348.99 1355.75H1343.99V1538.45H1348.99H1353.99V1355.75H1348.99ZM1348.99 1538.45V1543.45H1398.49V1538.45V1533.45H1348.99V1538.45ZM1398.49 1538.45H1393.49V1585.25H1398.49H1403.49V1538.45H1398.49ZM1294.54 1469.6L1299.52 1470.13L1303.57 1432.33L1298.59 1431.8L1293.62 1431.27L1289.57 1469.07L1294.54 1469.6ZM1298.59 1431.8V1426.8H1296.79V1431.8V1436.8H1298.59V1431.8ZM1296.79 1431.8L1292.27 1429.66L1276.97 1462.06L1281.49 1464.2L1286.02 1466.34L1301.32 1433.94L1296.79 1431.8ZM1281.49 1464.2L1277.53 1461.15L1230.73 1521.9L1234.69 1524.95L1238.66 1528L1285.46 1467.25L1281.49 1464.2ZM1234.69 1524.95L1231.67 1520.97L1209.17 1538.07L1212.19 1542.05L1215.22 1546.03L1237.72 1528.93L1234.69 1524.95ZM1212.19 1542.05L1212.81 1547.01L1241.61 1543.41L1240.99 1538.45L1240.37 1533.49L1211.57 1537.09L1212.19 1542.05ZM1240.99 1538.45V1543.45H1294.54V1538.45V1533.45H1240.99V1538.45ZM1294.54 1538.45H1299.54V1469.6H1294.54H1289.54V1538.45H1294.54ZM1631.32 1616.3L1626.68 1614.42L1626.66 1614.47L1626.64 1614.52L1631.32 1616.3ZM1610.62 1649.15L1614.21 1652.63L1614.21 1652.63L1610.62 1649.15ZM1577.77 1671.2L1575.84 1666.59L1575.82 1666.6L1575.8 1666.6L1577.77 1671.2ZM1492.72 1672.1L1490.88 1676.75L1490.94 1676.78L1491.01 1676.8L1492.72 1672.1ZM1458.97 1649.6L1455.38 1653.08L1455.38 1653.08L1458.97 1649.6ZM1436.47 1612.25L1431.76 1613.94L1431.76 1613.94L1436.47 1612.25ZM1440.97 1479.5L1436.27 1477.8L1436.26 1477.82L1436.25 1477.85L1440.97 1479.5ZM1475.62 1416.95L1471.74 1413.79L1471.74 1413.79L1475.62 1416.95ZM1526.47 1373.75L1528.92 1378.11L1528.93 1378.1L1528.94 1378.1L1526.47 1373.75ZM1588.12 1351.7L1592.93 1350.34L1591.72 1346.03L1587.29 1346.77L1588.12 1351.7ZM1601.17 1398.05L1601.96 1402.99L1607.5 1402.1L1605.98 1396.69L1601.17 1398.05ZM1559.77 1412L1562.17 1416.39L1559.77 1412ZM1526.02 1436.75L1522.54 1433.16L1522.51 1433.19L1522.48 1433.21L1526.02 1436.75ZM1501.27 1469.15L1496.93 1466.66L1496.92 1466.68L1496.91 1466.69L1501.27 1469.15ZM1487.32 1505.6L1482.43 1504.55L1491.22 1508.72L1487.32 1505.6ZM1510.72 1486.7L1513.06 1491.12L1513.12 1491.09L1513.17 1491.06L1510.72 1486.7ZM1584.07 1484.9L1585.8 1480.21L1585.8 1480.21L1584.07 1484.9ZM1613.32 1503.8L1609.72 1507.27L1609.75 1507.3L1609.78 1507.34L1613.32 1503.8ZM1632.22 1533.95L1627.54 1535.71L1627.54 1535.71L1632.22 1533.95ZM1502.17 1536.2L1499.46 1531.99L1499.43 1532.02L1499.39 1532.04L1502.17 1536.2ZM1485.07 1555.1L1480.52 1553.02L1480.26 1553.59L1480.15 1554.21L1485.07 1555.1ZM1487.32 1592.45L1482.52 1593.85L1482.52 1593.88L1482.53 1593.91L1487.32 1592.45ZM1496.32 1611.35L1492.19 1614.17L1492.28 1614.3L1492.37 1614.42L1496.32 1611.35ZM1512.07 1624.85L1509.59 1629.19L1509.67 1629.24L1509.75 1629.28L1512.07 1624.85ZM1568.77 1615.4L1565.12 1611.98L1565.09 1612.01L1565.06 1612.04L1568.77 1615.4ZM1638.97 1575.35H1633.97C1633.97 1589.46 1631.52 1602.47 1626.68 1614.42L1631.32 1616.3L1635.95 1618.18C1641.31 1604.93 1643.97 1590.64 1643.97 1575.35H1638.97ZM1631.32 1616.3L1626.64 1614.52C1622.08 1626.51 1615.53 1636.88 1607.02 1645.67L1610.62 1649.15L1614.21 1652.63C1623.7 1642.82 1630.96 1631.29 1635.99 1618.08L1631.32 1616.3ZM1610.62 1649.15L1607.02 1645.67C1598.53 1654.45 1588.16 1661.43 1575.84 1666.59L1577.77 1671.2L1579.7 1675.81C1593.17 1670.17 1604.7 1662.45 1614.21 1652.63L1610.62 1649.15ZM1577.77 1671.2L1575.8 1666.6C1563.89 1671.71 1550.62 1674.3 1535.92 1674.3V1679.3V1684.3C1551.82 1684.3 1566.45 1681.49 1579.74 1675.8L1577.77 1671.2ZM1535.92 1679.3V1674.3C1520.84 1674.3 1507.02 1671.98 1494.43 1667.4L1492.72 1672.1L1491.01 1676.8C1504.81 1681.82 1519.8 1684.3 1535.92 1684.3V1679.3ZM1492.72 1672.1L1494.56 1667.45C1482.31 1662.61 1471.66 1655.51 1462.56 1646.12L1458.97 1649.6L1455.38 1653.08C1465.47 1663.49 1477.32 1671.39 1490.88 1676.75L1492.72 1672.1ZM1458.97 1649.6L1462.56 1646.12C1453.52 1636.8 1446.37 1624.99 1441.17 1610.56L1436.47 1612.25L1431.76 1613.94C1437.37 1629.51 1445.21 1642.6 1455.38 1653.08L1458.97 1649.6ZM1436.47 1612.25L1441.17 1610.56C1436.01 1596.21 1433.37 1579.41 1433.37 1560.05H1428.37H1423.37C1423.37 1580.29 1426.13 1598.29 1431.76 1613.94L1436.47 1612.25ZM1428.37 1560.05H1433.37C1433.37 1530.82 1437.5 1504.54 1445.69 1481.15L1440.97 1479.5L1436.25 1477.85C1427.63 1502.46 1423.37 1529.88 1423.37 1560.05H1428.37ZM1440.97 1479.5L1445.67 1481.2C1454.2 1457.67 1465.49 1437.32 1479.5 1420.11L1475.62 1416.95L1471.74 1413.79C1456.95 1431.98 1445.13 1453.33 1436.27 1477.8L1440.97 1479.5ZM1475.62 1416.95L1479.49 1420.11C1493.82 1402.57 1510.29 1388.59 1528.92 1378.11L1526.47 1373.75L1524.02 1369.39C1504.24 1380.51 1486.82 1395.33 1471.74 1413.79L1475.62 1416.95ZM1526.47 1373.75L1528.94 1378.1C1547.94 1367.28 1567.93 1360.13 1588.94 1356.63L1588.12 1351.7L1587.29 1346.77C1565.1 1350.47 1543.99 1358.02 1523.99 1369.4L1526.47 1373.75ZM1588.12 1351.7L1583.3 1353.06L1596.35 1399.41L1601.17 1398.05L1605.98 1396.69L1592.93 1350.34L1588.12 1351.7ZM1601.17 1398.05L1600.38 1393.11C1584.84 1395.6 1570.5 1400.42 1557.37 1407.61L1559.77 1412L1562.17 1416.39C1574.24 1409.78 1587.49 1405.3 1601.96 1402.99L1601.17 1398.05ZM1559.77 1412L1557.37 1407.61C1544.39 1414.72 1532.77 1423.24 1522.54 1433.16L1526.02 1436.75L1529.5 1440.34C1539.06 1431.06 1549.95 1423.08 1562.17 1416.39L1559.77 1412ZM1526.02 1436.75L1522.48 1433.21C1512.56 1443.13 1504.05 1454.28 1496.93 1466.66L1501.27 1469.15L1505.6 1471.64C1512.29 1460.02 1520.27 1449.57 1529.55 1440.29L1526.02 1436.75ZM1501.27 1469.15L1496.91 1466.69C1490.07 1478.81 1485.24 1491.44 1482.43 1504.55L1487.32 1505.6L1492.21 1506.65C1494.8 1494.56 1499.26 1482.89 1505.62 1471.61L1501.27 1469.15ZM1487.32 1505.6L1491.22 1508.72C1496.74 1501.82 1503.99 1495.94 1513.06 1491.12L1510.72 1486.7L1508.37 1482.28C1498.25 1487.66 1489.89 1494.38 1483.41 1502.48L1487.32 1505.6ZM1510.72 1486.7L1513.17 1491.06C1521.82 1486.19 1532.92 1483.6 1546.72 1483.6V1478.6V1473.6C1531.71 1473.6 1518.81 1476.41 1508.27 1482.34L1510.72 1486.7ZM1546.72 1478.6V1483.6C1559.69 1483.6 1571.55 1485.62 1582.34 1489.59L1584.07 1484.9L1585.8 1480.21C1573.78 1475.78 1560.74 1473.6 1546.72 1473.6V1478.6ZM1584.07 1484.9L1582.34 1489.59C1593.06 1493.54 1602.16 1499.44 1609.72 1507.27L1613.32 1503.8L1616.92 1500.33C1608.27 1491.36 1597.87 1484.66 1585.8 1480.21L1584.07 1484.9ZM1613.32 1503.8L1609.78 1507.34C1617.32 1514.87 1623.26 1524.29 1627.54 1535.71L1632.22 1533.95L1636.9 1532.19C1632.18 1519.61 1625.51 1508.93 1616.85 1500.26L1613.32 1503.8ZM1632.22 1533.95L1627.54 1535.71C1631.78 1547.04 1633.97 1560.22 1633.97 1575.35H1638.97H1643.97C1643.97 1559.28 1641.65 1544.86 1636.9 1532.19L1632.22 1533.95ZM1582.27 1578.5H1587.27C1587.27 1560.95 1582.96 1546.87 1573.46 1537.2C1563.94 1527.51 1550.06 1523.1 1532.77 1523.1V1528.1V1533.1C1548.47 1533.1 1559.34 1537.09 1566.32 1544.2C1573.33 1551.33 1577.27 1562.45 1577.27 1578.5H1582.27ZM1532.77 1528.1V1523.1C1520 1523.1 1508.82 1525.98 1499.46 1531.99L1502.17 1536.2L1504.87 1540.41C1512.31 1535.62 1521.53 1533.1 1532.77 1533.1V1528.1ZM1502.17 1536.2L1499.39 1532.04C1490.7 1537.84 1484.29 1544.8 1480.52 1553.02L1485.07 1555.1L1489.61 1557.18C1492.45 1551 1497.44 1545.36 1504.94 1540.36L1502.17 1536.2ZM1485.07 1555.1L1480.15 1554.21C1479.51 1557.69 1479.17 1560.86 1479.17 1563.65H1484.17H1489.17C1489.17 1561.64 1489.42 1559.11 1489.99 1555.99L1485.07 1555.1ZM1484.17 1563.65H1479.17C1479.17 1563.65 1479.17 1563.66 1479.17 1563.66C1479.17 1563.67 1479.17 1563.67 1479.17 1563.68C1479.17 1563.68 1479.17 1563.69 1479.17 1563.69C1479.17 1563.7 1479.17 1563.7 1479.17 1563.71C1479.17 1563.71 1479.17 1563.72 1479.17 1563.72C1479.17 1563.72 1479.17 1563.73 1479.17 1563.73C1479.17 1563.74 1479.17 1563.74 1479.17 1563.75C1479.17 1563.75 1479.17 1563.76 1479.17 1563.76C1479.17 1563.77 1479.17 1563.77 1479.17 1563.78C1479.17 1563.78 1479.17 1563.79 1479.17 1563.79C1479.17 1563.8 1479.17 1563.8 1479.17 1563.8C1479.17 1563.81 1479.17 1563.81 1479.17 1563.82C1479.17 1563.82 1479.17 1563.83 1479.17 1563.83C1479.17 1563.84 1479.17 1563.84 1479.17 1563.85C1479.17 1563.85 1479.17 1563.86 1479.17 1563.86C1479.17 1563.87 1479.17 1563.87 1479.17 1563.87C1479.17 1563.88 1479.17 1563.88 1479.17 1563.89C1479.17 1563.89 1479.17 1563.9 1479.17 1563.9C1479.17 1563.91 1479.17 1563.91 1479.17 1563.92C1479.17 1563.92 1479.17 1563.93 1479.17 1563.93C1479.17 1563.94 1479.17 1563.94 1479.17 1563.95C1479.17 1563.95 1479.17 1563.95 1479.17 1563.96C1479.17 1563.96 1479.17 1563.97 1479.17 1563.97C1479.17 1563.98 1479.17 1563.98 1479.17 1563.99C1479.17 1563.99 1479.17 1564 1479.17 1564C1479.17 1564.01 1479.17 1564.01 1479.17 1564.02C1479.17 1564.02 1479.17 1564.02 1479.17 1564.03C1479.17 1564.03 1479.17 1564.04 1479.17 1564.04C1479.17 1564.05 1479.17 1564.05 1479.17 1564.06C1479.17 1564.06 1479.17 1564.07 1479.17 1564.07C1479.17 1564.08 1479.17 1564.08 1479.17 1564.09C1479.17 1564.09 1479.17 1564.1 1479.17 1564.1C1479.17 1564.1 1479.17 1564.11 1479.17 1564.11C1479.17 1564.12 1479.17 1564.12 1479.17 1564.13C1479.17 1564.13 1479.17 1564.14 1479.17 1564.14C1479.17 1564.15 1479.17 1564.15 1479.17 1564.16C1479.17 1564.16 1479.17 1564.17 1479.17 1564.17C1479.17 1564.17 1479.17 1564.18 1479.17 1564.18C1479.17 1564.19 1479.17 1564.19 1479.17 1564.2C1479.17 1564.2 1479.17 1564.21 1479.17 1564.21C1479.17 1564.22 1479.17 1564.22 1479.17 1564.23C1479.17 1564.23 1479.17 1564.24 1479.17 1564.24C1479.17 1564.25 1479.17 1564.25 1479.17 1564.25C1479.17 1564.26 1479.17 1564.26 1479.17 1564.27C1479.17 1564.27 1479.17 1564.28 1479.17 1564.28C1479.17 1564.29 1479.17 1564.29 1479.17 1564.3C1479.17 1564.3 1479.17 1564.31 1479.17 1564.31C1479.17 1564.32 1479.17 1564.32 1479.17 1564.32C1479.17 1564.33 1479.17 1564.33 1479.17 1564.34C1479.17 1564.34 1479.17 1564.35 1479.17 1564.35C1479.17 1564.36 1479.17 1564.36 1479.17 1564.37C1479.17 1564.37 1479.17 1564.38 1479.17 1564.38C1479.17 1564.39 1479.17 1564.39 1479.17 1564.4C1479.17 1564.4 1479.17 1564.4 1479.17 1564.41C1479.17 1564.41 1479.17 1564.42 1479.17 1564.42C1479.17 1564.43 1479.17 1564.43 1479.17 1564.44C1479.17 1564.44 1479.17 1564.45 1479.17 1564.45C1479.17 1564.46 1479.17 1564.46 1479.17 1564.47C1479.17 1564.47 1479.17 1564.47 1479.17 1564.48C1479.17 1564.48 1479.17 1564.49 1479.17 1564.49C1479.17 1564.5 1479.17 1564.5 1479.17 1564.51C1479.17 1564.51 1479.17 1564.52 1479.17 1564.52C1479.17 1564.53 1479.17 1564.53 1479.17 1564.54C1479.17 1564.54 1479.17 1564.55 1479.17 1564.55C1479.17 1564.55 1479.17 1564.56 1479.17 1564.56C1479.17 1564.57 1479.17 1564.57 1479.17 1564.58C1479.17 1564.58 1479.17 1564.59 1479.17 1564.59C1479.17 1564.6 1479.17 1564.6 1479.17 1564.61C1479.17 1564.61 1479.17 1564.62 1479.17 1564.62C1479.17 1564.62 1479.17 1564.63 1479.17 1564.63C1479.17 1564.64 1479.17 1564.64 1479.17 1564.65C1479.17 1564.65 1479.17 1564.66 1479.17 1564.66C1479.17 1564.67 1479.17 1564.67 1479.17 1564.68C1479.17 1564.68 1479.17 1564.69 1479.17 1564.69C1479.17 1564.7 1479.17 1564.7 1479.17 1564.7C1479.17 1564.71 1479.17 1564.71 1479.17 1564.72C1479.17 1564.72 1479.17 1564.73 1479.17 1564.73C1479.17 1564.74 1479.17 1564.74 1479.17 1564.75C1479.17 1564.75 1479.17 1564.76 1479.17 1564.76C1479.17 1564.77 1479.17 1564.77 1479.17 1564.77C1479.17 1564.78 1479.17 1564.78 1479.17 1564.79C1479.17 1564.79 1479.17 1564.8 1479.17 1564.8C1479.17 1564.81 1479.17 1564.81 1479.17 1564.82C1479.17 1564.82 1479.17 1564.83 1479.17 1564.83C1479.17 1564.84 1479.17 1564.84 1479.17 1564.85C1479.17 1564.85 1479.17 1564.85 1479.17 1564.86C1479.17 1564.86 1479.17 1564.87 1479.17 1564.87C1479.17 1564.88 1479.17 1564.88 1479.17 1564.89C1479.17 1564.89 1479.17 1564.9 1479.17 1564.9C1479.17 1564.91 1479.17 1564.91 1479.17 1564.92C1479.17 1564.92 1479.17 1564.92 1479.17 1564.93C1479.17 1564.93 1479.17 1564.94 1479.17 1564.94C1479.17 1564.95 1479.17 1564.95 1479.17 1564.96C1479.17 1564.96 1479.17 1564.97 1479.17 1564.97C1479.17 1564.98 1479.17 1564.98 1479.17 1564.99C1479.17 1564.99 1479.17 1565 1479.17 1565C1479.17 1565 1479.17 1565.01 1479.17 1565.01C1479.17 1565.02 1479.17 1565.02 1479.17 1565.03C1479.17 1565.03 1479.17 1565.04 1479.17 1565.04C1479.17 1565.05 1479.17 1565.05 1479.17 1565.06C1479.17 1565.06 1479.17 1565.07 1479.17 1565.07C1479.17 1565.07 1479.17 1565.08 1479.17 1565.08C1479.17 1565.09 1479.17 1565.09 1479.17 1565.1C1479.17 1565.1 1479.17 1565.11 1479.17 1565.11C1479.17 1565.12 1479.17 1565.12 1479.17 1565.13C1479.17 1565.13 1479.17 1565.14 1479.17 1565.14C1479.17 1565.15 1479.17 1565.15 1479.17 1565.15C1479.17 1565.16 1479.17 1565.16 1479.17 1565.17C1479.17 1565.17 1479.17 1565.18 1479.17 1565.18C1479.17 1565.19 1479.17 1565.19 1479.17 1565.2C1479.17 1565.2 1479.17 1565.21 1479.17 1565.21C1479.17 1565.22 1479.17 1565.22 1479.17 1565.22C1479.17 1565.23 1479.17 1565.23 1479.17 1565.24C1479.17 1565.24 1479.17 1565.25 1479.17 1565.25C1479.17 1565.26 1479.17 1565.26 1479.17 1565.27C1479.17 1565.27 1479.17 1565.28 1479.17 1565.28C1479.17 1565.29 1479.17 1565.29 1479.17 1565.3C1479.17 1565.3 1479.17 1565.3 1479.17 1565.31C1479.17 1565.31 1479.17 1565.32 1479.17 1565.32C1479.17 1565.33 1479.17 1565.33 1479.17 1565.34C1479.17 1565.34 1479.17 1565.35 1479.17 1565.35C1479.17 1565.36 1479.17 1565.36 1479.17 1565.37C1479.17 1565.37 1479.17 1565.37 1479.17 1565.38C1479.17 1565.38 1479.17 1565.39 1479.17 1565.39C1479.17 1565.4 1479.17 1565.4 1479.17 1565.41C1479.17 1565.41 1479.17 1565.42 1479.17 1565.42C1479.17 1565.43 1479.17 1565.43 1479.17 1565.44C1479.17 1565.44 1479.17 1565.45 1479.17 1565.45C1479.17 1565.45 1479.17 1565.46 1479.17 1565.46C1479.17 1565.47 1479.17 1565.47 1479.17 1565.48C1479.17 1565.48 1479.17 1565.49 1479.17 1565.49C1479.17 1565.5 1479.17 1565.5 1479.17 1565.51C1479.17 1565.51 1479.17 1565.52 1479.17 1565.52C1479.17 1565.52 1479.17 1565.53 1479.17 1565.53C1479.17 1565.54 1479.17 1565.54 1479.17 1565.55C1479.17 1565.55 1479.17 1565.56 1479.17 1565.56C1479.17 1565.57 1479.17 1565.57 1479.17 1565.58C1479.17 1565.58 1479.17 1565.59 1479.17 1565.59C1479.17 1565.6 1479.17 1565.6 1479.17 1565.6C1479.17 1565.61 1479.17 1565.61 1479.17 1565.62C1479.17 1565.62 1479.17 1565.63 1479.17 1565.63C1479.17 1565.64 1479.17 1565.64 1479.17 1565.65C1479.17 1565.65 1479.17 1565.66 1479.17 1565.66C1479.17 1565.67 1479.17 1565.67 1479.17 1565.67C1479.17 1565.68 1479.17 1565.68 1479.17 1565.69C1479.17 1565.69 1479.17 1565.7 1479.17 1565.7C1479.17 1565.71 1479.17 1565.71 1479.17 1565.72C1479.17 1565.72 1479.17 1565.73 1479.17 1565.73C1479.17 1565.74 1479.17 1565.74 1479.17 1565.75C1479.17 1565.75 1479.17 1565.75 1479.17 1565.76C1479.17 1565.76 1479.17 1565.77 1479.17 1565.77C1479.17 1565.78 1479.17 1565.78 1479.17 1565.79C1479.17 1565.79 1479.17 1565.8 1479.17 1565.8C1479.17 1565.81 1479.17 1565.81 1479.17 1565.82C1479.17 1565.82 1479.17 1565.82 1479.17 1565.83C1479.17 1565.83 1479.17 1565.84 1479.17 1565.84C1479.17 1565.85 1479.17 1565.85 1479.17 1565.86C1479.17 1565.86 1479.17 1565.87 1479.17 1565.87C1479.17 1565.88 1479.17 1565.88 1479.17 1565.89C1479.17 1565.89 1479.17 1565.9 1479.17 1565.9C1479.17 1565.9 1479.17 1565.91 1479.17 1565.91C1479.17 1565.92 1479.17 1565.92 1479.17 1565.93C1479.17 1565.93 1479.17 1565.94 1479.17 1565.94C1479.17 1565.95 1479.17 1565.95 1479.17 1565.96C1479.17 1565.96 1479.17 1565.97 1479.17 1565.97C1479.17 1565.97 1479.17 1565.98 1479.17 1565.98C1479.17 1565.99 1479.17 1565.99 1479.17 1566C1479.17 1566 1479.17 1566.01 1479.17 1566.01C1479.17 1566.02 1479.17 1566.02 1479.17 1566.03C1479.17 1566.03 1479.17 1566.04 1479.17 1566.04C1479.17 1566.05 1479.17 1566.05 1479.17 1566.05C1479.17 1566.06 1479.17 1566.06 1479.17 1566.07C1479.17 1566.07 1479.17 1566.08 1479.17 1566.08C1479.17 1566.09 1479.17 1566.09 1479.17 1566.1C1479.17 1566.1 1479.17 1566.11 1479.17 1566.11C1479.17 1566.12 1479.17 1566.12 1479.17 1566.12C1479.17 1566.13 1479.17 1566.13 1479.17 1566.14C1479.17 1566.14 1479.17 1566.15 1479.17 1566.15C1479.17 1566.16 1479.17 1566.16 1479.17 1566.17C1479.17 1566.17 1479.17 1566.18 1479.17 1566.18C1479.17 1566.19 1479.17 1566.19 1479.17 1566.2C1479.17 1566.2 1479.17 1566.2 1479.17 1566.21C1479.17 1566.21 1479.17 1566.22 1479.17 1566.22C1479.17 1566.23 1479.17 1566.23 1479.17 1566.24C1479.17 1566.24 1479.17 1566.25 1479.17 1566.25C1479.17 1566.26 1479.17 1566.26 1479.17 1566.27C1479.17 1566.27 1479.17 1566.27 1479.17 1566.28C1479.17 1566.28 1479.17 1566.29 1479.17 1566.29C1479.17 1566.3 1479.17 1566.3 1479.17 1566.31C1479.17 1566.31 1479.17 1566.32 1479.17 1566.32C1479.17 1566.33 1479.17 1566.33 1479.17 1566.34C1479.17 1566.34 1479.17 1566.35 1479.17 1566.35C1479.17 1566.35 1479.17 1566.36 1479.17 1566.36C1479.17 1566.37 1479.17 1566.37 1479.17 1566.38C1479.17 1566.38 1479.17 1566.39 1479.17 1566.39C1479.17 1566.4 1479.17 1566.4 1479.17 1566.41C1479.17 1566.41 1479.17 1566.42 1479.17 1566.42C1479.17 1566.42 1479.17 1566.43 1479.17 1566.43C1479.17 1566.44 1479.17 1566.44 1479.17 1566.45C1479.17 1566.45 1479.17 1566.46 1479.17 1566.46C1479.17 1566.47 1479.17 1566.47 1479.17 1566.48C1479.17 1566.48 1479.17 1566.49 1479.17 1566.49C1479.17 1566.5 1479.17 1566.5 1479.17 1566.5C1479.17 1566.51 1479.17 1566.51 1479.17 1566.52C1479.17 1566.52 1479.17 1566.53 1479.17 1566.53C1479.17 1566.54 1479.17 1566.54 1479.17 1566.55C1479.17 1566.55 1479.17 1566.56 1479.17 1566.56C1479.17 1566.57 1479.17 1566.57 1479.17 1566.57C1479.17 1566.58 1479.17 1566.58 1479.17 1566.59C1479.17 1566.59 1479.17 1566.6 1479.17 1566.6C1479.17 1566.61 1479.17 1566.61 1479.17 1566.62C1479.17 1566.62 1479.17 1566.63 1479.17 1566.63C1479.17 1566.64 1479.17 1566.64 1479.17 1566.65C1479.17 1566.65 1479.17 1566.65 1479.17 1566.66C1479.17 1566.66 1479.17 1566.67 1479.17 1566.67C1479.17 1566.68 1479.17 1566.68 1479.17 1566.69C1479.17 1566.69 1479.17 1566.7 1479.17 1566.7C1479.17 1566.71 1479.17 1566.71 1479.17 1566.72C1479.17 1566.72 1479.17 1566.72 1479.17 1566.73C1479.17 1566.73 1479.17 1566.74 1479.17 1566.74C1479.17 1566.75 1479.17 1566.75 1479.17 1566.76C1479.17 1566.76 1479.17 1566.77 1479.17 1566.77C1479.17 1566.78 1479.17 1566.78 1479.17 1566.79C1479.17 1566.79 1479.17 1566.8 1479.17 1566.8C1479.17 1566.8 1479.17 1566.81 1479.17 1566.81C1479.17 1566.82 1479.17 1566.82 1479.17 1566.83C1479.17 1566.83 1479.17 1566.84 1479.17 1566.84C1479.17 1566.85 1479.17 1566.85 1479.17 1566.86C1479.17 1566.86 1479.17 1566.87 1479.17 1566.87C1479.17 1566.87 1479.17 1566.88 1479.17 1566.88C1479.17 1566.89 1479.17 1566.89 1479.17 1566.9C1479.17 1566.9 1479.17 1566.91 1479.17 1566.91C1479.17 1566.92 1479.17 1566.92 1479.17 1566.93C1479.17 1566.93 1479.17 1566.94 1479.17 1566.94C1479.17 1566.95 1479.17 1566.95 1479.17 1566.95C1479.17 1566.96 1479.17 1566.96 1479.17 1566.97C1479.17 1566.97 1479.17 1566.98 1479.17 1566.98C1479.17 1566.99 1479.17 1566.99 1479.17 1567C1479.17 1567 1479.17 1567.01 1479.17 1567.01C1479.17 1567.02 1479.17 1567.02 1479.17 1567.02C1479.17 1567.03 1479.17 1567.03 1479.17 1567.04C1479.17 1567.04 1479.17 1567.05 1479.17 1567.05C1479.17 1567.06 1479.17 1567.06 1479.17 1567.07C1479.17 1567.07 1479.17 1567.08 1479.17 1567.08C1479.17 1567.09 1479.17 1567.09 1479.17 1567.1C1479.17 1567.1 1479.17 1567.1 1479.17 1567.11C1479.17 1567.11 1479.17 1567.12 1479.17 1567.12C1479.17 1567.13 1479.17 1567.13 1479.17 1567.14C1479.17 1567.14 1479.17 1567.15 1479.17 1567.15C1479.17 1567.16 1479.17 1567.16 1479.17 1567.17C1479.17 1567.17 1479.17 1567.17 1479.17 1567.18C1479.17 1567.18 1479.17 1567.19 1479.17 1567.19C1479.17 1567.2 1479.17 1567.2 1479.17 1567.21C1479.17 1567.21 1479.17 1567.22 1479.17 1567.22C1479.17 1567.23 1479.17 1567.23 1479.17 1567.24C1479.17 1567.24 1479.17 1567.25 1479.17 1567.25C1479.17 1567.25 1479.17 1567.26 1479.17 1567.26C1479.17 1567.27 1479.17 1567.27 1479.17 1567.28C1479.17 1567.28 1479.17 1567.29 1479.17 1567.29C1479.17 1567.3 1479.17 1567.3 1479.17 1567.31C1479.17 1567.31 1479.17 1567.32 1479.17 1567.32C1479.17 1567.32 1479.17 1567.33 1479.17 1567.33C1479.17 1567.34 1479.17 1567.34 1479.17 1567.35C1479.17 1567.35 1479.17 1567.36 1479.17 1567.36C1479.17 1567.37 1479.17 1567.37 1479.17 1567.38C1479.17 1567.38 1479.17 1567.39 1479.17 1567.39C1479.17 1567.4 1479.17 1567.4 1479.17 1567.4C1479.17 1567.41 1479.17 1567.41 1479.17 1567.42C1479.17 1567.42 1479.17 1567.43 1479.17 1567.43C1479.17 1567.44 1479.17 1567.44 1479.17 1567.45C1479.17 1567.45 1479.17 1567.46 1479.17 1567.46C1479.17 1567.47 1479.17 1567.47 1479.17 1567.47C1479.17 1567.48 1479.17 1567.48 1479.17 1567.49C1479.17 1567.49 1479.17 1567.5 1479.17 1567.5C1479.17 1567.51 1479.17 1567.51 1479.17 1567.52C1479.17 1567.52 1479.17 1567.53 1479.17 1567.53C1479.17 1567.54 1479.17 1567.54 1479.17 1567.55C1479.17 1567.55 1479.17 1567.55 1479.17 1567.56C1479.17 1567.56 1479.17 1567.57 1479.17 1567.57C1479.17 1567.58 1479.17 1567.58 1479.17 1567.59C1479.17 1567.59 1479.17 1567.6 1479.17 1567.6C1479.17 1567.61 1479.17 1567.61 1479.17 1567.62C1479.17 1567.62 1479.17 1567.62 1479.17 1567.63C1479.17 1567.63 1479.17 1567.64 1479.17 1567.64C1479.17 1567.65 1479.17 1567.65 1479.17 1567.66C1479.17 1567.66 1479.17 1567.67 1479.17 1567.67C1479.17 1567.68 1479.17 1567.68 1479.17 1567.69C1479.17 1567.69 1479.17 1567.7 1479.17 1567.7C1479.17 1567.7 1479.17 1567.71 1479.17 1567.71C1479.17 1567.72 1479.17 1567.72 1479.17 1567.73C1479.17 1567.73 1479.17 1567.74 1479.17 1567.74C1479.17 1567.75 1479.17 1567.75 1479.17 1567.76C1479.17 1567.76 1479.17 1567.77 1479.17 1567.77C1479.17 1567.77 1479.17 1567.78 1479.17 1567.78C1479.17 1567.79 1479.17 1567.79 1479.17 1567.8C1479.17 1567.8 1479.17 1567.81 1479.17 1567.81C1479.17 1567.82 1479.17 1567.82 1479.17 1567.83C1479.17 1567.83 1479.17 1567.84 1479.17 1567.84C1479.17 1567.85 1479.17 1567.85 1479.17 1567.85C1479.17 1567.86 1479.17 1567.86 1479.17 1567.87C1479.17 1567.87 1479.17 1567.88 1479.17 1567.88C1479.17 1567.89 1479.17 1567.89 1479.17 1567.9C1479.17 1567.9 1479.17 1567.91 1479.17 1567.91C1479.17 1567.92 1479.17 1567.92 1479.17 1567.92C1479.17 1567.93 1479.17 1567.93 1479.17 1567.94C1479.17 1567.94 1479.17 1567.95 1479.17 1567.95C1479.17 1567.96 1479.17 1567.96 1479.17 1567.97C1479.17 1567.97 1479.17 1567.98 1479.17 1567.98C1479.17 1567.99 1479.17 1567.99 1479.17 1568C1479.17 1568 1479.17 1568 1479.17 1568.01C1479.17 1568.01 1479.17 1568.02 1479.17 1568.02C1479.17 1568.03 1479.17 1568.03 1479.17 1568.04C1479.17 1568.04 1479.17 1568.05 1479.17 1568.05C1479.17 1568.06 1479.17 1568.06 1479.17 1568.07C1479.17 1568.07 1479.17 1568.07 1479.17 1568.08C1479.17 1568.08 1479.17 1568.09 1479.17 1568.09C1479.17 1568.1 1479.17 1568.1 1479.17 1568.11C1479.17 1568.11 1479.17 1568.12 1479.17 1568.12C1479.17 1568.13 1479.17 1568.13 1479.17 1568.14C1479.17 1568.14 1479.17 1568.15 1479.17 1568.15C1479.17 1568.15 1479.17 1568.16 1479.17 1568.16C1479.17 1568.17 1479.17 1568.17 1479.17 1568.18C1479.17 1568.18 1479.17 1568.19 1479.17 1568.19C1479.17 1568.2 1479.17 1568.2 1479.17 1568.21C1479.17 1568.21 1479.17 1568.22 1479.17 1568.22C1479.17 1568.22 1479.17 1568.23 1479.17 1568.23C1479.17 1568.24 1479.17 1568.24 1479.17 1568.25C1479.17 1568.25 1479.17 1568.26 1479.17 1568.26C1479.17 1568.27 1479.17 1568.27 1479.17 1568.28C1479.17 1568.28 1479.17 1568.29 1479.17 1568.29C1479.17 1568.3 1479.17 1568.3 1479.17 1568.3C1479.17 1568.31 1479.17 1568.31 1479.17 1568.32C1479.17 1568.32 1479.17 1568.33 1479.17 1568.33C1479.17 1568.34 1479.17 1568.34 1479.17 1568.35C1479.17 1568.35 1479.17 1568.36 1479.17 1568.36C1479.17 1568.37 1479.17 1568.37 1479.17 1568.37C1479.17 1568.38 1479.17 1568.38 1479.17 1568.39C1479.17 1568.39 1479.17 1568.4 1479.17 1568.4C1479.17 1568.41 1479.17 1568.41 1479.17 1568.42C1479.17 1568.42 1479.17 1568.43 1479.17 1568.43C1479.17 1568.44 1479.17 1568.44 1479.17 1568.45C1479.17 1568.45 1479.17 1568.45 1479.17 1568.46C1479.17 1568.46 1479.17 1568.47 1479.17 1568.47C1479.17 1568.48 1479.17 1568.48 1479.17 1568.49C1479.17 1568.49 1479.17 1568.5 1479.17 1568.5C1479.17 1568.51 1479.17 1568.51 1479.17 1568.52C1479.17 1568.52 1479.17 1568.52 1479.17 1568.53C1479.17 1568.53 1479.17 1568.54 1479.17 1568.54C1479.17 1568.55 1479.17 1568.55 1479.17 1568.56C1479.17 1568.56 1479.17 1568.57 1479.17 1568.57C1479.17 1568.58 1479.17 1568.58 1479.17 1568.59C1479.17 1568.59 1479.17 1568.6 1479.17 1568.6C1479.17 1568.6 1479.17 1568.61 1479.17 1568.61C1479.17 1568.62 1479.17 1568.62 1479.17 1568.63C1479.17 1568.63 1479.17 1568.64 1479.17 1568.64C1479.17 1568.65 1479.17 1568.65 1479.17 1568.66C1479.17 1568.66 1479.17 1568.67 1479.17 1568.67C1479.17 1568.67 1479.17 1568.68 1479.17 1568.68C1479.17 1568.69 1479.17 1568.69 1479.17 1568.7C1479.17 1568.7 1479.17 1568.71 1479.17 1568.71C1479.17 1568.72 1479.17 1568.72 1479.17 1568.73C1479.17 1568.73 1479.17 1568.74 1479.17 1568.74C1479.17 1568.75 1479.17 1568.75 1479.17 1568.75C1479.17 1568.76 1479.17 1568.76 1479.17 1568.77C1479.17 1568.77 1479.17 1568.78 1479.17 1568.78C1479.17 1568.79 1479.17 1568.79 1479.17 1568.8C1479.17 1568.8 1479.17 1568.81 1479.17 1568.81C1479.17 1568.82 1479.17 1568.82 1479.17 1568.82C1479.17 1568.83 1479.17 1568.83 1479.17 1568.84C1479.17 1568.84 1479.17 1568.85 1479.17 1568.85C1479.17 1568.86 1479.17 1568.86 1479.17 1568.87C1479.17 1568.87 1479.17 1568.88 1479.17 1568.88C1479.17 1568.89 1479.17 1568.89 1479.17 1568.9C1479.17 1568.9 1479.17 1568.9 1479.17 1568.91C1479.17 1568.91 1479.17 1568.92 1479.17 1568.92C1479.17 1568.93 1479.17 1568.93 1479.17 1568.94C1479.17 1568.94 1479.17 1568.95 1479.17 1568.95C1479.17 1568.96 1479.17 1568.96 1479.17 1568.97C1479.17 1568.97 1479.17 1568.97 1479.17 1568.98C1479.17 1568.98 1479.17 1568.99 1479.17 1568.99C1479.17 1569 1479.17 1569 1479.17 1569.01C1479.17 1569.01 1479.17 1569.02 1479.17 1569.02C1479.17 1569.03 1479.17 1569.03 1479.17 1569.04C1479.17 1569.04 1479.17 1569.05 1479.17 1569.05C1479.17 1569.05 1479.17 1569.06 1479.17 1569.06C1479.17 1569.07 1479.17 1569.07 1479.17 1569.08C1479.17 1569.08 1479.17 1569.09 1479.17 1569.09C1479.17 1569.1 1479.17 1569.1 1479.17 1569.11C1479.17 1569.11 1479.17 1569.12 1479.17 1569.12C1479.17 1569.12 1479.17 1569.13 1479.17 1569.13C1479.17 1569.14 1479.17 1569.14 1479.17 1569.15C1479.17 1569.15 1479.17 1569.16 1479.17 1569.16C1479.17 1569.17 1479.17 1569.17 1479.17 1569.18C1479.17 1569.18 1479.17 1569.19 1479.17 1569.19C1479.17 1569.2 1479.17 1569.2 1479.17 1569.2C1479.17 1569.21 1479.17 1569.21 1479.17 1569.22C1479.17 1569.22 1479.17 1569.23 1479.17 1569.23C1479.17 1569.24 1479.17 1569.24 1479.17 1569.25C1479.17 1569.25 1479.17 1569.26 1479.17 1569.26C1479.17 1569.27 1479.17 1569.27 1479.17 1569.27C1479.17 1569.28 1479.17 1569.28 1479.17 1569.29C1479.17 1569.29 1479.17 1569.3 1479.17 1569.3C1479.17 1569.31 1479.17 1569.31 1479.17 1569.32C1479.17 1569.32 1479.17 1569.33 1479.17 1569.33C1479.17 1569.34 1479.17 1569.34 1479.17 1569.35C1479.17 1569.35 1479.17 1569.35 1479.17 1569.36C1479.17 1569.36 1479.17 1569.37 1479.17 1569.37C1479.17 1569.38 1479.17 1569.38 1479.17 1569.39C1479.17 1569.39 1479.17 1569.4 1479.17 1569.4C1479.17 1569.41 1479.17 1569.41 1479.17 1569.42C1479.17 1569.42 1479.17 1569.42 1479.17 1569.43C1479.17 1569.43 1479.17 1569.44 1479.17 1569.44C1479.17 1569.45 1479.17 1569.45 1479.17 1569.46C1479.17 1569.46 1479.17 1569.47 1479.17 1569.47C1479.17 1569.48 1479.17 1569.48 1479.17 1569.49C1479.17 1569.49 1479.17 1569.5 1479.17 1569.5C1479.17 1569.5 1479.17 1569.51 1479.17 1569.51C1479.17 1569.52 1479.17 1569.52 1479.17 1569.53C1479.17 1569.53 1479.17 1569.54 1479.17 1569.54C1479.17 1569.55 1479.17 1569.55 1479.17 1569.56C1479.17 1569.56 1479.17 1569.57 1479.17 1569.57C1479.17 1569.57 1479.17 1569.58 1479.17 1569.58C1479.17 1569.59 1479.17 1569.59 1479.17 1569.6C1479.17 1569.6 1479.17 1569.61 1479.17 1569.61C1479.17 1569.62 1479.17 1569.62 1479.17 1569.63C1479.17 1569.63 1479.17 1569.64 1479.17 1569.64C1479.17 1569.65 1479.17 1569.65 1479.17 1569.65C1479.17 1569.66 1479.17 1569.66 1479.17 1569.67C1479.17 1569.67 1479.17 1569.68 1479.17 1569.68C1479.17 1569.69 1479.17 1569.69 1479.17 1569.7C1479.17 1569.7 1479.17 1569.71 1479.17 1569.71C1479.17 1569.72 1479.17 1569.72 1479.17 1569.72C1479.17 1569.73 1479.17 1569.73 1479.17 1569.74C1479.17 1569.74 1479.17 1569.75 1479.17 1569.75C1479.17 1569.76 1479.17 1569.76 1479.17 1569.77C1479.17 1569.77 1479.17 1569.78 1479.17 1569.78C1479.17 1569.79 1479.17 1569.79 1479.17 1569.8C1479.17 1569.8 1479.17 1569.8 1479.17 1569.81C1479.17 1569.81 1479.17 1569.82 1479.17 1569.82C1479.17 1569.83 1479.17 1569.83 1479.17 1569.84C1479.17 1569.84 1479.17 1569.85 1479.17 1569.85C1479.17 1569.86 1479.17 1569.86 1479.17 1569.87C1479.17 1569.87 1479.17 1569.87 1479.17 1569.88C1479.17 1569.88 1479.17 1569.89 1479.17 1569.89C1479.17 1569.9 1479.17 1569.9 1479.17 1569.91C1479.17 1569.91 1479.17 1569.92 1479.17 1569.92C1479.17 1569.93 1479.17 1569.93 1479.17 1569.94C1479.17 1569.94 1479.17 1569.95 1479.17 1569.95C1479.17 1569.95 1479.17 1569.96 1479.17 1569.96C1479.17 1569.97 1479.17 1569.97 1479.17 1569.98C1479.17 1569.98 1479.17 1569.99 1479.17 1569.99C1479.17 1570 1479.17 1570 1479.17 1570.01C1479.17 1570.01 1479.17 1570.02 1479.17 1570.02C1479.17 1570.02 1479.17 1570.03 1479.17 1570.03C1479.17 1570.04 1479.17 1570.04 1479.17 1570.05C1479.17 1570.05 1479.17 1570.06 1479.17 1570.06C1479.17 1570.07 1479.17 1570.07 1479.17 1570.08C1479.17 1570.08 1479.17 1570.09 1479.17 1570.09C1479.17 1570.1 1479.17 1570.1 1479.17 1570.1C1479.17 1570.11 1479.17 1570.11 1479.17 1570.12C1479.17 1570.12 1479.17 1570.13 1479.17 1570.13C1479.17 1570.14 1479.17 1570.14 1479.17 1570.15C1479.17 1570.15 1479.17 1570.16 1479.17 1570.16C1479.17 1570.17 1479.17 1570.17 1479.17 1570.17C1479.17 1570.18 1479.17 1570.18 1479.17 1570.19C1479.17 1570.19 1479.17 1570.2 1479.17 1570.2C1479.17 1570.21 1479.17 1570.21 1479.17 1570.22C1479.17 1570.22 1479.17 1570.23 1479.17 1570.23C1479.17 1570.24 1479.17 1570.24 1479.17 1570.25C1479.17 1570.25 1479.17 1570.25 1479.17 1570.26C1479.17 1570.26 1479.17 1570.27 1479.17 1570.27C1479.17 1570.28 1479.17 1570.28 1479.17 1570.29C1479.17 1570.29 1479.17 1570.3 1479.17 1570.3C1479.17 1570.31 1479.17 1570.31 1479.17 1570.32C1479.17 1570.32 1479.17 1570.32 1479.17 1570.33C1479.17 1570.33 1479.17 1570.34 1479.17 1570.34C1479.17 1570.35 1479.17 1570.35 1479.17 1570.36C1479.17 1570.36 1479.17 1570.37 1479.17 1570.37C1479.17 1570.38 1479.17 1570.38 1479.17 1570.39C1479.17 1570.39 1479.17 1570.4 1479.17 1570.4C1479.17 1570.4 1479.17 1570.41 1479.17 1570.41C1479.17 1570.42 1479.17 1570.42 1479.17 1570.43C1479.17 1570.43 1479.17 1570.44 1479.17 1570.44C1479.17 1570.45 1479.17 1570.45 1479.17 1570.46C1479.17 1570.46 1479.17 1570.47 1479.17 1570.47C1479.17 1570.47 1479.17 1570.48 1479.17 1570.48C1479.17 1570.49 1479.17 1570.49 1479.17 1570.5C1479.17 1570.5 1479.17 1570.51 1479.17 1570.51C1479.17 1570.52 1479.17 1570.52 1479.17 1570.53C1479.17 1570.53 1479.17 1570.54 1479.17 1570.54C1479.17 1570.55 1479.17 1570.55 1479.17 1570.55C1479.17 1570.56 1479.17 1570.56 1479.17 1570.57C1479.17 1570.57 1479.17 1570.58 1479.17 1570.58C1479.17 1570.59 1479.17 1570.59 1479.17 1570.6C1479.17 1570.6 1479.17 1570.61 1479.17 1570.61C1479.17 1570.62 1479.17 1570.62 1479.17 1570.62C1479.17 1570.63 1479.17 1570.63 1479.17 1570.64C1479.17 1570.64 1479.17 1570.65 1479.17 1570.65C1479.17 1570.66 1479.17 1570.66 1479.17 1570.67C1479.17 1570.67 1479.17 1570.68 1479.17 1570.68C1479.17 1570.69 1479.17 1570.69 1479.17 1570.7C1479.17 1570.7 1479.17 1570.7 1479.17 1570.71C1479.17 1570.71 1479.17 1570.72 1479.17 1570.72C1479.17 1570.73 1479.17 1570.73 1479.17 1570.74C1479.17 1570.74 1479.17 1570.75 1479.17 1570.75C1479.17 1570.76 1479.17 1570.76 1479.17 1570.77C1479.17 1570.77 1479.17 1570.77 1479.17 1570.78C1479.17 1570.78 1479.17 1570.79 1479.17 1570.79C1479.17 1570.8 1479.17 1570.8 1479.17 1570.81C1479.17 1570.81 1479.17 1570.82 1479.17 1570.82C1479.17 1570.83 1479.17 1570.83 1479.17 1570.84C1479.17 1570.84 1479.17 1570.85 1479.17 1570.85H1484.17H1489.17C1489.17 1570.85 1489.17 1570.84 1489.17 1570.84C1489.17 1570.83 1489.17 1570.83 1489.17 1570.82C1489.17 1570.82 1489.17 1570.81 1489.17 1570.81C1489.17 1570.8 1489.17 1570.8 1489.17 1570.79C1489.17 1570.79 1489.17 1570.78 1489.17 1570.78C1489.17 1570.77 1489.17 1570.77 1489.17 1570.77C1489.17 1570.76 1489.17 1570.76 1489.17 1570.75C1489.17 1570.75 1489.17 1570.74 1489.17 1570.74C1489.17 1570.73 1489.17 1570.73 1489.17 1570.72C1489.17 1570.72 1489.17 1570.71 1489.17 1570.71C1489.17 1570.7 1489.17 1570.7 1489.17 1570.7C1489.17 1570.69 1489.17 1570.69 1489.17 1570.68C1489.17 1570.68 1489.17 1570.67 1489.17 1570.67C1489.17 1570.66 1489.17 1570.66 1489.17 1570.65C1489.17 1570.65 1489.17 1570.64 1489.17 1570.64C1489.17 1570.63 1489.17 1570.63 1489.17 1570.62C1489.17 1570.62 1489.17 1570.62 1489.17 1570.61C1489.17 1570.61 1489.17 1570.6 1489.17 1570.6C1489.17 1570.59 1489.17 1570.59 1489.17 1570.58C1489.17 1570.58 1489.17 1570.57 1489.17 1570.57C1489.17 1570.56 1489.17 1570.56 1489.17 1570.55C1489.17 1570.55 1489.17 1570.55 1489.17 1570.54C1489.17 1570.54 1489.17 1570.53 1489.17 1570.53C1489.17 1570.52 1489.17 1570.52 1489.17 1570.51C1489.17 1570.51 1489.17 1570.5 1489.17 1570.5C1489.17 1570.49 1489.17 1570.49 1489.17 1570.48C1489.17 1570.48 1489.17 1570.47 1489.17 1570.47C1489.17 1570.47 1489.17 1570.46 1489.17 1570.46C1489.17 1570.45 1489.17 1570.45 1489.17 1570.44C1489.17 1570.44 1489.17 1570.43 1489.17 1570.43C1489.17 1570.42 1489.17 1570.42 1489.17 1570.41C1489.17 1570.41 1489.17 1570.4 1489.17 1570.4C1489.17 1570.4 1489.17 1570.39 1489.17 1570.39C1489.17 1570.38 1489.17 1570.38 1489.17 1570.37C1489.17 1570.37 1489.17 1570.36 1489.17 1570.36C1489.17 1570.35 1489.17 1570.35 1489.17 1570.34C1489.17 1570.34 1489.17 1570.33 1489.17 1570.33C1489.17 1570.32 1489.17 1570.32 1489.17 1570.32C1489.17 1570.31 1489.17 1570.31 1489.17 1570.3C1489.17 1570.3 1489.17 1570.29 1489.17 1570.29C1489.17 1570.28 1489.17 1570.28 1489.17 1570.27C1489.17 1570.27 1489.17 1570.26 1489.17 1570.26C1489.17 1570.25 1489.17 1570.25 1489.17 1570.25C1489.17 1570.24 1489.17 1570.24 1489.17 1570.23C1489.17 1570.23 1489.17 1570.22 1489.17 1570.22C1489.17 1570.21 1489.17 1570.21 1489.17 1570.2C1489.17 1570.2 1489.17 1570.19 1489.17 1570.19C1489.17 1570.18 1489.17 1570.18 1489.17 1570.17C1489.17 1570.17 1489.17 1570.17 1489.17 1570.16C1489.17 1570.16 1489.17 1570.15 1489.17 1570.15C1489.17 1570.14 1489.17 1570.14 1489.17 1570.13C1489.17 1570.13 1489.17 1570.12 1489.17 1570.12C1489.17 1570.11 1489.17 1570.11 1489.17 1570.1C1489.17 1570.1 1489.17 1570.1 1489.17 1570.09C1489.17 1570.09 1489.17 1570.08 1489.17 1570.08C1489.17 1570.07 1489.17 1570.07 1489.17 1570.06C1489.17 1570.06 1489.17 1570.05 1489.17 1570.05C1489.17 1570.04 1489.17 1570.04 1489.17 1570.03C1489.17 1570.03 1489.17 1570.02 1489.17 1570.02C1489.17 1570.02 1489.17 1570.01 1489.17 1570.01C1489.17 1570 1489.17 1570 1489.17 1569.99C1489.17 1569.99 1489.17 1569.98 1489.17 1569.98C1489.17 1569.97 1489.17 1569.97 1489.17 1569.96C1489.17 1569.96 1489.17 1569.95 1489.17 1569.95C1489.17 1569.95 1489.17 1569.94 1489.17 1569.94C1489.17 1569.93 1489.17 1569.93 1489.17 1569.92C1489.17 1569.92 1489.17 1569.91 1489.17 1569.91C1489.17 1569.9 1489.17 1569.9 1489.17 1569.89C1489.17 1569.89 1489.17 1569.88 1489.17 1569.88C1489.17 1569.87 1489.17 1569.87 1489.17 1569.87C1489.17 1569.86 1489.17 1569.86 1489.17 1569.85C1489.17 1569.85 1489.17 1569.84 1489.17 1569.84C1489.17 1569.83 1489.17 1569.83 1489.17 1569.82C1489.17 1569.82 1489.17 1569.81 1489.17 1569.81C1489.17 1569.8 1489.17 1569.8 1489.17 1569.8C1489.17 1569.79 1489.17 1569.79 1489.17 1569.78C1489.17 1569.78 1489.17 1569.77 1489.17 1569.77C1489.17 1569.76 1489.17 1569.76 1489.17 1569.75C1489.17 1569.75 1489.17 1569.74 1489.17 1569.74C1489.17 1569.73 1489.17 1569.73 1489.17 1569.72C1489.17 1569.72 1489.17 1569.72 1489.17 1569.71C1489.17 1569.71 1489.17 1569.7 1489.17 1569.7C1489.17 1569.69 1489.17 1569.69 1489.17 1569.68C1489.17 1569.68 1489.17 1569.67 1489.17 1569.67C1489.17 1569.66 1489.17 1569.66 1489.17 1569.65C1489.17 1569.65 1489.17 1569.65 1489.17 1569.64C1489.17 1569.64 1489.17 1569.63 1489.17 1569.63C1489.17 1569.62 1489.17 1569.62 1489.17 1569.61C1489.17 1569.61 1489.17 1569.6 1489.17 1569.6C1489.17 1569.59 1489.17 1569.59 1489.17 1569.58C1489.17 1569.58 1489.17 1569.57 1489.17 1569.57C1489.17 1569.57 1489.17 1569.56 1489.17 1569.56C1489.17 1569.55 1489.17 1569.55 1489.17 1569.54C1489.17 1569.54 1489.17 1569.53 1489.17 1569.53C1489.17 1569.52 1489.17 1569.52 1489.17 1569.51C1489.17 1569.51 1489.17 1569.5 1489.17 1569.5C1489.17 1569.5 1489.17 1569.49 1489.17 1569.49C1489.17 1569.48 1489.17 1569.48 1489.17 1569.47C1489.17 1569.47 1489.17 1569.46 1489.17 1569.46C1489.17 1569.45 1489.17 1569.45 1489.17 1569.44C1489.17 1569.44 1489.17 1569.43 1489.17 1569.43C1489.17 1569.42 1489.17 1569.42 1489.17 1569.42C1489.17 1569.41 1489.17 1569.41 1489.17 1569.4C1489.17 1569.4 1489.17 1569.39 1489.17 1569.39C1489.17 1569.38 1489.17 1569.38 1489.17 1569.37C1489.17 1569.37 1489.17 1569.36 1489.17 1569.36C1489.17 1569.35 1489.17 1569.35 1489.17 1569.35C1489.17 1569.34 1489.17 1569.34 1489.17 1569.33C1489.17 1569.33 1489.17 1569.32 1489.17 1569.32C1489.17 1569.31 1489.17 1569.31 1489.17 1569.3C1489.17 1569.3 1489.17 1569.29 1489.17 1569.29C1489.17 1569.28 1489.17 1569.28 1489.17 1569.27C1489.17 1569.27 1489.17 1569.27 1489.17 1569.26C1489.17 1569.26 1489.17 1569.25 1489.17 1569.25C1489.17 1569.24 1489.17 1569.24 1489.17 1569.23C1489.17 1569.23 1489.17 1569.22 1489.17 1569.22C1489.17 1569.21 1489.17 1569.21 1489.17 1569.2C1489.17 1569.2 1489.17 1569.2 1489.17 1569.19C1489.17 1569.19 1489.17 1569.18 1489.17 1569.18C1489.17 1569.17 1489.17 1569.17 1489.17 1569.16C1489.17 1569.16 1489.17 1569.15 1489.17 1569.15C1489.17 1569.14 1489.17 1569.14 1489.17 1569.13C1489.17 1569.13 1489.17 1569.12 1489.17 1569.12C1489.17 1569.12 1489.17 1569.11 1489.17 1569.11C1489.17 1569.1 1489.17 1569.1 1489.17 1569.09C1489.17 1569.09 1489.17 1569.08 1489.17 1569.08C1489.17 1569.07 1489.17 1569.07 1489.17 1569.06C1489.17 1569.06 1489.17 1569.05 1489.17 1569.05C1489.17 1569.05 1489.17 1569.04 1489.17 1569.04C1489.17 1569.03 1489.17 1569.03 1489.17 1569.02C1489.17 1569.02 1489.17 1569.01 1489.17 1569.01C1489.17 1569 1489.17 1569 1489.17 1568.99C1489.17 1568.99 1489.17 1568.98 1489.17 1568.98C1489.17 1568.97 1489.17 1568.97 1489.17 1568.97C1489.17 1568.96 1489.17 1568.96 1489.17 1568.95C1489.17 1568.95 1489.17 1568.94 1489.17 1568.94C1489.17 1568.93 1489.17 1568.93 1489.17 1568.92C1489.17 1568.92 1489.17 1568.91 1489.17 1568.91C1489.17 1568.9 1489.17 1568.9 1489.17 1568.9C1489.17 1568.89 1489.17 1568.89 1489.17 1568.88C1489.17 1568.88 1489.17 1568.87 1489.17 1568.87C1489.17 1568.86 1489.17 1568.86 1489.17 1568.85C1489.17 1568.85 1489.17 1568.84 1489.17 1568.84C1489.17 1568.83 1489.17 1568.83 1489.17 1568.82C1489.17 1568.82 1489.17 1568.82 1489.17 1568.81C1489.17 1568.81 1489.17 1568.8 1489.17 1568.8C1489.17 1568.79 1489.17 1568.79 1489.17 1568.78C1489.17 1568.78 1489.17 1568.77 1489.17 1568.77C1489.17 1568.76 1489.17 1568.76 1489.17 1568.75C1489.17 1568.75 1489.17 1568.75 1489.17 1568.74C1489.17 1568.74 1489.17 1568.73 1489.17 1568.73C1489.17 1568.72 1489.17 1568.72 1489.17 1568.71C1489.17 1568.71 1489.17 1568.7 1489.17 1568.7C1489.17 1568.69 1489.17 1568.69 1489.17 1568.68C1489.17 1568.68 1489.17 1568.67 1489.17 1568.67C1489.17 1568.67 1489.17 1568.66 1489.17 1568.66C1489.17 1568.65 1489.17 1568.65 1489.17 1568.64C1489.17 1568.64 1489.17 1568.63 1489.17 1568.63C1489.17 1568.62 1489.17 1568.62 1489.17 1568.61C1489.17 1568.61 1489.17 1568.6 1489.17 1568.6C1489.17 1568.6 1489.17 1568.59 1489.17 1568.59C1489.17 1568.58 1489.17 1568.58 1489.17 1568.57C1489.17 1568.57 1489.17 1568.56 1489.17 1568.56C1489.17 1568.55 1489.17 1568.55 1489.17 1568.54C1489.17 1568.54 1489.17 1568.53 1489.17 1568.53C1489.17 1568.52 1489.17 1568.52 1489.17 1568.52C1489.17 1568.51 1489.17 1568.51 1489.17 1568.5C1489.17 1568.5 1489.17 1568.49 1489.17 1568.49C1489.17 1568.48 1489.17 1568.48 1489.17 1568.47C1489.17 1568.47 1489.17 1568.46 1489.17 1568.46C1489.17 1568.45 1489.17 1568.45 1489.17 1568.45C1489.17 1568.44 1489.17 1568.44 1489.17 1568.43C1489.17 1568.43 1489.17 1568.42 1489.17 1568.42C1489.17 1568.41 1489.17 1568.41 1489.17 1568.4C1489.17 1568.4 1489.17 1568.39 1489.17 1568.39C1489.17 1568.38 1489.17 1568.38 1489.17 1568.37C1489.17 1568.37 1489.17 1568.37 1489.17 1568.36C1489.17 1568.36 1489.17 1568.35 1489.17 1568.35C1489.17 1568.34 1489.17 1568.34 1489.17 1568.33C1489.17 1568.33 1489.17 1568.32 1489.17 1568.32C1489.17 1568.31 1489.17 1568.31 1489.17 1568.3C1489.17 1568.3 1489.17 1568.3 1489.17 1568.29C1489.17 1568.29 1489.17 1568.28 1489.17 1568.28C1489.17 1568.27 1489.17 1568.27 1489.17 1568.26C1489.17 1568.26 1489.17 1568.25 1489.17 1568.25C1489.17 1568.24 1489.17 1568.24 1489.17 1568.23C1489.17 1568.23 1489.17 1568.22 1489.17 1568.22C1489.17 1568.22 1489.17 1568.21 1489.17 1568.21C1489.17 1568.2 1489.17 1568.2 1489.17 1568.19C1489.17 1568.19 1489.17 1568.18 1489.17 1568.18C1489.17 1568.17 1489.17 1568.17 1489.17 1568.16C1489.17 1568.16 1489.17 1568.15 1489.17 1568.15C1489.17 1568.15 1489.17 1568.14 1489.17 1568.14C1489.17 1568.13 1489.17 1568.13 1489.17 1568.12C1489.17 1568.12 1489.17 1568.11 1489.17 1568.11C1489.17 1568.1 1489.17 1568.1 1489.17 1568.09C1489.17 1568.09 1489.17 1568.08 1489.17 1568.08C1489.17 1568.07 1489.17 1568.07 1489.17 1568.07C1489.17 1568.06 1489.17 1568.06 1489.17 1568.05C1489.17 1568.05 1489.17 1568.04 1489.17 1568.04C1489.17 1568.03 1489.17 1568.03 1489.17 1568.02C1489.17 1568.02 1489.17 1568.01 1489.17 1568.01C1489.17 1568 1489.17 1568 1489.17 1568C1489.17 1567.99 1489.17 1567.99 1489.17 1567.98C1489.17 1567.98 1489.17 1567.97 1489.17 1567.97C1489.17 1567.96 1489.17 1567.96 1489.17 1567.95C1489.17 1567.95 1489.17 1567.94 1489.17 1567.94C1489.17 1567.93 1489.17 1567.93 1489.17 1567.92C1489.17 1567.92 1489.17 1567.92 1489.17 1567.91C1489.17 1567.91 1489.17 1567.9 1489.17 1567.9C1489.17 1567.89 1489.17 1567.89 1489.17 1567.88C1489.17 1567.88 1489.17 1567.87 1489.17 1567.87C1489.17 1567.86 1489.17 1567.86 1489.17 1567.85C1489.17 1567.85 1489.17 1567.85 1489.17 1567.84C1489.17 1567.84 1489.17 1567.83 1489.17 1567.83C1489.17 1567.82 1489.17 1567.82 1489.17 1567.81C1489.17 1567.81 1489.17 1567.8 1489.17 1567.8C1489.17 1567.79 1489.17 1567.79 1489.17 1567.78C1489.17 1567.78 1489.17 1567.77 1489.17 1567.77C1489.17 1567.77 1489.17 1567.76 1489.17 1567.76C1489.17 1567.75 1489.17 1567.75 1489.17 1567.74C1489.17 1567.74 1489.17 1567.73 1489.17 1567.73C1489.17 1567.72 1489.17 1567.72 1489.17 1567.71C1489.17 1567.71 1489.17 1567.7 1489.17 1567.7C1489.17 1567.7 1489.17 1567.69 1489.17 1567.69C1489.17 1567.68 1489.17 1567.68 1489.17 1567.67C1489.17 1567.67 1489.17 1567.66 1489.17 1567.66C1489.17 1567.65 1489.17 1567.65 1489.17 1567.64C1489.17 1567.64 1489.17 1567.63 1489.17 1567.63C1489.17 1567.62 1489.17 1567.62 1489.17 1567.62C1489.17 1567.61 1489.17 1567.61 1489.17 1567.6C1489.17 1567.6 1489.17 1567.59 1489.17 1567.59C1489.17 1567.58 1489.17 1567.58 1489.17 1567.57C1489.17 1567.57 1489.17 1567.56 1489.17 1567.56C1489.17 1567.55 1489.17 1567.55 1489.17 1567.55C1489.17 1567.54 1489.17 1567.54 1489.17 1567.53C1489.17 1567.53 1489.17 1567.52 1489.17 1567.52C1489.17 1567.51 1489.17 1567.51 1489.17 1567.5C1489.17 1567.5 1489.17 1567.49 1489.17 1567.49C1489.17 1567.48 1489.17 1567.48 1489.17 1567.47C1489.17 1567.47 1489.17 1567.47 1489.17 1567.46C1489.17 1567.46 1489.17 1567.45 1489.17 1567.45C1489.17 1567.44 1489.17 1567.44 1489.17 1567.43C1489.17 1567.43 1489.17 1567.42 1489.17 1567.42C1489.17 1567.41 1489.17 1567.41 1489.17 1567.4C1489.17 1567.4 1489.17 1567.4 1489.17 1567.39C1489.17 1567.39 1489.17 1567.38 1489.17 1567.38C1489.17 1567.37 1489.17 1567.37 1489.17 1567.36C1489.17 1567.36 1489.17 1567.35 1489.17 1567.35C1489.17 1567.34 1489.17 1567.34 1489.17 1567.33C1489.17 1567.33 1489.17 1567.32 1489.17 1567.32C1489.17 1567.32 1489.17 1567.31 1489.17 1567.31C1489.17 1567.3 1489.17 1567.3 1489.17 1567.29C1489.17 1567.29 1489.17 1567.28 1489.17 1567.28C1489.17 1567.27 1489.17 1567.27 1489.17 1567.26C1489.17 1567.26 1489.17 1567.25 1489.17 1567.25C1489.17 1567.25 1489.17 1567.24 1489.17 1567.24C1489.17 1567.23 1489.17 1567.23 1489.17 1567.22C1489.17 1567.22 1489.17 1567.21 1489.17 1567.21C1489.17 1567.2 1489.17 1567.2 1489.17 1567.19C1489.17 1567.19 1489.17 1567.18 1489.17 1567.18C1489.17 1567.17 1489.17 1567.17 1489.17 1567.17C1489.17 1567.16 1489.17 1567.16 1489.17 1567.15C1489.17 1567.15 1489.17 1567.14 1489.17 1567.14C1489.17 1567.13 1489.17 1567.13 1489.17 1567.12C1489.17 1567.12 1489.17 1567.11 1489.17 1567.11C1489.17 1567.1 1489.17 1567.1 1489.17 1567.1C1489.17 1567.09 1489.17 1567.09 1489.17 1567.08C1489.17 1567.08 1489.17 1567.07 1489.17 1567.07C1489.17 1567.06 1489.17 1567.06 1489.17 1567.05C1489.17 1567.05 1489.17 1567.04 1489.17 1567.04C1489.17 1567.03 1489.17 1567.03 1489.17 1567.02C1489.17 1567.02 1489.17 1567.02 1489.17 1567.01C1489.17 1567.01 1489.17 1567 1489.17 1567C1489.17 1566.99 1489.17 1566.99 1489.17 1566.98C1489.17 1566.98 1489.17 1566.97 1489.17 1566.97C1489.17 1566.96 1489.17 1566.96 1489.17 1566.95C1489.17 1566.95 1489.17 1566.95 1489.17 1566.94C1489.17 1566.94 1489.17 1566.93 1489.17 1566.93C1489.17 1566.92 1489.17 1566.92 1489.17 1566.91C1489.17 1566.91 1489.17 1566.9 1489.17 1566.9C1489.17 1566.89 1489.17 1566.89 1489.17 1566.88C1489.17 1566.88 1489.17 1566.87 1489.17 1566.87C1489.17 1566.87 1489.17 1566.86 1489.17 1566.86C1489.17 1566.85 1489.17 1566.85 1489.17 1566.84C1489.17 1566.84 1489.17 1566.83 1489.17 1566.83C1489.17 1566.82 1489.17 1566.82 1489.17 1566.81C1489.17 1566.81 1489.17 1566.8 1489.17 1566.8C1489.17 1566.8 1489.17 1566.79 1489.17 1566.79C1489.17 1566.78 1489.17 1566.78 1489.17 1566.77C1489.17 1566.77 1489.17 1566.76 1489.17 1566.76C1489.17 1566.75 1489.17 1566.75 1489.17 1566.74C1489.17 1566.74 1489.17 1566.73 1489.17 1566.73C1489.17 1566.72 1489.17 1566.72 1489.17 1566.72C1489.17 1566.71 1489.17 1566.71 1489.17 1566.7C1489.17 1566.7 1489.17 1566.69 1489.17 1566.69C1489.17 1566.68 1489.17 1566.68 1489.17 1566.67C1489.17 1566.67 1489.17 1566.66 1489.17 1566.66C1489.17 1566.65 1489.17 1566.65 1489.17 1566.65C1489.17 1566.64 1489.17 1566.64 1489.17 1566.63C1489.17 1566.63 1489.17 1566.62 1489.17 1566.62C1489.17 1566.61 1489.17 1566.61 1489.17 1566.6C1489.17 1566.6 1489.17 1566.59 1489.17 1566.59C1489.17 1566.58 1489.17 1566.58 1489.17 1566.57C1489.17 1566.57 1489.17 1566.57 1489.17 1566.56C1489.17 1566.56 1489.17 1566.55 1489.17 1566.55C1489.17 1566.54 1489.17 1566.54 1489.17 1566.53C1489.17 1566.53 1489.17 1566.52 1489.17 1566.52C1489.17 1566.51 1489.17 1566.51 1489.17 1566.5C1489.17 1566.5 1489.17 1566.5 1489.17 1566.49C1489.17 1566.49 1489.17 1566.48 1489.17 1566.48C1489.17 1566.47 1489.17 1566.47 1489.17 1566.46C1489.17 1566.46 1489.17 1566.45 1489.17 1566.45C1489.17 1566.44 1489.17 1566.44 1489.17 1566.43C1489.17 1566.43 1489.17 1566.42 1489.17 1566.42C1489.17 1566.42 1489.17 1566.41 1489.17 1566.41C1489.17 1566.4 1489.17 1566.4 1489.17 1566.39C1489.17 1566.39 1489.17 1566.38 1489.17 1566.38C1489.17 1566.37 1489.17 1566.37 1489.17 1566.36C1489.17 1566.36 1489.17 1566.35 1489.17 1566.35C1489.17 1566.35 1489.17 1566.34 1489.17 1566.34C1489.17 1566.33 1489.17 1566.33 1489.17 1566.32C1489.17 1566.32 1489.17 1566.31 1489.17 1566.31C1489.17 1566.3 1489.17 1566.3 1489.17 1566.29C1489.17 1566.29 1489.17 1566.28 1489.17 1566.28C1489.17 1566.27 1489.17 1566.27 1489.17 1566.27C1489.17 1566.26 1489.17 1566.26 1489.17 1566.25C1489.17 1566.25 1489.17 1566.24 1489.17 1566.24C1489.17 1566.23 1489.17 1566.23 1489.17 1566.22C1489.17 1566.22 1489.17 1566.21 1489.17 1566.21C1489.17 1566.2 1489.17 1566.2 1489.17 1566.2C1489.17 1566.19 1489.17 1566.19 1489.17 1566.18C1489.17 1566.18 1489.17 1566.17 1489.17 1566.17C1489.17 1566.16 1489.17 1566.16 1489.17 1566.15C1489.17 1566.15 1489.17 1566.14 1489.17 1566.14C1489.17 1566.13 1489.17 1566.13 1489.17 1566.12C1489.17 1566.12 1489.17 1566.12 1489.17 1566.11C1489.17 1566.11 1489.17 1566.1 1489.17 1566.1C1489.17 1566.09 1489.17 1566.09 1489.17 1566.08C1489.17 1566.08 1489.17 1566.07 1489.17 1566.07C1489.17 1566.06 1489.17 1566.06 1489.17 1566.05C1489.17 1566.05 1489.17 1566.05 1489.17 1566.04C1489.17 1566.04 1489.17 1566.03 1489.17 1566.03C1489.17 1566.02 1489.17 1566.02 1489.17 1566.01C1489.17 1566.01 1489.17 1566 1489.17 1566C1489.17 1565.99 1489.17 1565.99 1489.17 1565.98C1489.17 1565.98 1489.17 1565.97 1489.17 1565.97C1489.17 1565.97 1489.17 1565.96 1489.17 1565.96C1489.17 1565.95 1489.17 1565.95 1489.17 1565.94C1489.17 1565.94 1489.17 1565.93 1489.17 1565.93C1489.17 1565.92 1489.17 1565.92 1489.17 1565.91C1489.17 1565.91 1489.17 1565.9 1489.17 1565.9C1489.17 1565.9 1489.17 1565.89 1489.17 1565.89C1489.17 1565.88 1489.17 1565.88 1489.17 1565.87C1489.17 1565.87 1489.17 1565.86 1489.17 1565.86C1489.17 1565.85 1489.17 1565.85 1489.17 1565.84C1489.17 1565.84 1489.17 1565.83 1489.17 1565.83C1489.17 1565.82 1489.17 1565.82 1489.17 1565.82C1489.17 1565.81 1489.17 1565.81 1489.17 1565.8C1489.17 1565.8 1489.17 1565.79 1489.17 1565.79C1489.17 1565.78 1489.17 1565.78 1489.17 1565.77C1489.17 1565.77 1489.17 1565.76 1489.17 1565.76C1489.17 1565.75 1489.17 1565.75 1489.17 1565.75C1489.17 1565.74 1489.17 1565.74 1489.17 1565.73C1489.17 1565.73 1489.17 1565.72 1489.17 1565.72C1489.17 1565.71 1489.17 1565.71 1489.17 1565.7C1489.17 1565.7 1489.17 1565.69 1489.17 1565.69C1489.17 1565.68 1489.17 1565.68 1489.17 1565.67C1489.17 1565.67 1489.17 1565.67 1489.17 1565.66C1489.17 1565.66 1489.17 1565.65 1489.17 1565.65C1489.17 1565.64 1489.17 1565.64 1489.17 1565.63C1489.17 1565.63 1489.17 1565.62 1489.17 1565.62C1489.17 1565.61 1489.17 1565.61 1489.17 1565.6C1489.17 1565.6 1489.17 1565.6 1489.17 1565.59C1489.17 1565.59 1489.17 1565.58 1489.17 1565.58C1489.17 1565.57 1489.17 1565.57 1489.17 1565.56C1489.17 1565.56 1489.17 1565.55 1489.17 1565.55C1489.17 1565.54 1489.17 1565.54 1489.17 1565.53C1489.17 1565.53 1489.17 1565.52 1489.17 1565.52C1489.17 1565.52 1489.17 1565.51 1489.17 1565.51C1489.17 1565.5 1489.17 1565.5 1489.17 1565.49C1489.17 1565.49 1489.17 1565.48 1489.17 1565.48C1489.17 1565.47 1489.17 1565.47 1489.17 1565.46C1489.17 1565.46 1489.17 1565.45 1489.17 1565.45C1489.17 1565.45 1489.17 1565.44 1489.17 1565.44C1489.17 1565.43 1489.17 1565.43 1489.17 1565.42C1489.17 1565.42 1489.17 1565.41 1489.17 1565.41C1489.17 1565.4 1489.17 1565.4 1489.17 1565.39C1489.17 1565.39 1489.17 1565.38 1489.17 1565.38C1489.17 1565.37 1489.17 1565.37 1489.17 1565.37C1489.17 1565.36 1489.17 1565.36 1489.17 1565.35C1489.17 1565.35 1489.17 1565.34 1489.17 1565.34C1489.17 1565.33 1489.17 1565.33 1489.17 1565.32C1489.17 1565.32 1489.17 1565.31 1489.17 1565.31C1489.17 1565.3 1489.17 1565.3 1489.17 1565.3C1489.17 1565.29 1489.17 1565.29 1489.17 1565.28C1489.17 1565.28 1489.17 1565.27 1489.17 1565.27C1489.17 1565.26 1489.17 1565.26 1489.17 1565.25C1489.17 1565.25 1489.17 1565.24 1489.17 1565.24C1489.17 1565.23 1489.17 1565.23 1489.17 1565.22C1489.17 1565.22 1489.17 1565.22 1489.17 1565.21C1489.17 1565.21 1489.17 1565.2 1489.17 1565.2C1489.17 1565.19 1489.17 1565.19 1489.17 1565.18C1489.17 1565.18 1489.17 1565.17 1489.17 1565.17C1489.17 1565.16 1489.17 1565.16 1489.17 1565.15C1489.17 1565.15 1489.17 1565.15 1489.17 1565.14C1489.17 1565.14 1489.17 1565.13 1489.17 1565.13C1489.17 1565.12 1489.17 1565.12 1489.17 1565.11C1489.17 1565.11 1489.17 1565.1 1489.17 1565.1C1489.17 1565.09 1489.17 1565.09 1489.17 1565.08C1489.17 1565.08 1489.17 1565.07 1489.17 1565.07C1489.17 1565.07 1489.17 1565.06 1489.17 1565.06C1489.17 1565.05 1489.17 1565.05 1489.17 1565.04C1489.17 1565.04 1489.17 1565.03 1489.17 1565.03C1489.17 1565.02 1489.17 1565.02 1489.17 1565.01C1489.17 1565.01 1489.17 1565 1489.17 1565C1489.17 1565 1489.17 1564.99 1489.17 1564.99C1489.17 1564.98 1489.17 1564.98 1489.17 1564.97C1489.17 1564.97 1489.17 1564.96 1489.17 1564.96C1489.17 1564.95 1489.17 1564.95 1489.17 1564.94C1489.17 1564.94 1489.17 1564.93 1489.17 1564.93C1489.17 1564.92 1489.17 1564.92 1489.17 1564.92C1489.17 1564.91 1489.17 1564.91 1489.17 1564.9C1489.17 1564.9 1489.17 1564.89 1489.17 1564.89C1489.17 1564.88 1489.17 1564.88 1489.17 1564.87C1489.17 1564.87 1489.17 1564.86 1489.17 1564.86C1489.17 1564.85 1489.17 1564.85 1489.17 1564.85C1489.17 1564.84 1489.17 1564.84 1489.17 1564.83C1489.17 1564.83 1489.17 1564.82 1489.17 1564.82C1489.17 1564.81 1489.17 1564.81 1489.17 1564.8C1489.17 1564.8 1489.17 1564.79 1489.17 1564.79C1489.17 1564.78 1489.17 1564.78 1489.17 1564.77C1489.17 1564.77 1489.17 1564.77 1489.17 1564.76C1489.17 1564.76 1489.17 1564.75 1489.17 1564.75C1489.17 1564.74 1489.17 1564.74 1489.17 1564.73C1489.17 1564.73 1489.17 1564.72 1489.17 1564.72C1489.17 1564.71 1489.17 1564.71 1489.17 1564.7C1489.17 1564.7 1489.17 1564.7 1489.17 1564.69C1489.17 1564.69 1489.17 1564.68 1489.17 1564.68C1489.17 1564.67 1489.17 1564.67 1489.17 1564.66C1489.17 1564.66 1489.17 1564.65 1489.17 1564.65C1489.17 1564.64 1489.17 1564.64 1489.17 1564.63C1489.17 1564.63 1489.17 1564.62 1489.17 1564.62C1489.17 1564.62 1489.17 1564.61 1489.17 1564.61C1489.17 1564.6 1489.17 1564.6 1489.17 1564.59C1489.17 1564.59 1489.17 1564.58 1489.17 1564.58C1489.17 1564.57 1489.17 1564.57 1489.17 1564.56C1489.17 1564.56 1489.17 1564.55 1489.17 1564.55C1489.17 1564.55 1489.17 1564.54 1489.17 1564.54C1489.17 1564.53 1489.17 1564.53 1489.17 1564.52C1489.17 1564.52 1489.17 1564.51 1489.17 1564.51C1489.17 1564.5 1489.17 1564.5 1489.17 1564.49C1489.17 1564.49 1489.17 1564.48 1489.17 1564.48C1489.17 1564.47 1489.17 1564.47 1489.17 1564.47C1489.17 1564.46 1489.17 1564.46 1489.17 1564.45C1489.17 1564.45 1489.17 1564.44 1489.17 1564.44C1489.17 1564.43 1489.17 1564.43 1489.17 1564.42C1489.17 1564.42 1489.17 1564.41 1489.17 1564.41C1489.17 1564.4 1489.17 1564.4 1489.17 1564.4C1489.17 1564.39 1489.17 1564.39 1489.17 1564.38C1489.17 1564.38 1489.17 1564.37 1489.17 1564.37C1489.17 1564.36 1489.17 1564.36 1489.17 1564.35C1489.17 1564.35 1489.17 1564.34 1489.17 1564.34C1489.17 1564.33 1489.17 1564.33 1489.17 1564.32C1489.17 1564.32 1489.17 1564.32 1489.17 1564.31C1489.17 1564.31 1489.17 1564.3 1489.17 1564.3C1489.17 1564.29 1489.17 1564.29 1489.17 1564.28C1489.17 1564.28 1489.17 1564.27 1489.17 1564.27C1489.17 1564.26 1489.17 1564.26 1489.17 1564.25C1489.17 1564.25 1489.17 1564.25 1489.17 1564.24C1489.17 1564.24 1489.17 1564.23 1489.17 1564.23C1489.17 1564.22 1489.17 1564.22 1489.17 1564.21C1489.17 1564.21 1489.17 1564.2 1489.17 1564.2C1489.17 1564.19 1489.17 1564.19 1489.17 1564.18C1489.17 1564.18 1489.17 1564.17 1489.17 1564.17C1489.17 1564.17 1489.17 1564.16 1489.17 1564.16C1489.17 1564.15 1489.17 1564.15 1489.17 1564.14C1489.17 1564.14 1489.17 1564.13 1489.17 1564.13C1489.17 1564.12 1489.17 1564.12 1489.17 1564.11C1489.17 1564.11 1489.17 1564.1 1489.17 1564.1C1489.17 1564.1 1489.17 1564.09 1489.17 1564.09C1489.17 1564.08 1489.17 1564.08 1489.17 1564.07C1489.17 1564.07 1489.17 1564.06 1489.17 1564.06C1489.17 1564.05 1489.17 1564.05 1489.17 1564.04C1489.17 1564.04 1489.17 1564.03 1489.17 1564.03C1489.17 1564.02 1489.17 1564.02 1489.17 1564.02C1489.17 1564.01 1489.17 1564.01 1489.17 1564C1489.17 1564 1489.17 1563.99 1489.17 1563.99C1489.17 1563.98 1489.17 1563.98 1489.17 1563.97C1489.17 1563.97 1489.17 1563.96 1489.17 1563.96C1489.17 1563.95 1489.17 1563.95 1489.17 1563.95C1489.17 1563.94 1489.17 1563.94 1489.17 1563.93C1489.17 1563.93 1489.17 1563.92 1489.17 1563.92C1489.17 1563.91 1489.17 1563.91 1489.17 1563.9C1489.17 1563.9 1489.17 1563.89 1489.17 1563.89C1489.17 1563.88 1489.17 1563.88 1489.17 1563.87C1489.17 1563.87 1489.17 1563.87 1489.17 1563.86C1489.17 1563.86 1489.17 1563.85 1489.17 1563.85C1489.17 1563.84 1489.17 1563.84 1489.17 1563.83C1489.17 1563.83 1489.17 1563.82 1489.17 1563.82C1489.17 1563.81 1489.17 1563.81 1489.17 1563.8C1489.17 1563.8 1489.17 1563.8 1489.17 1563.79C1489.17 1563.79 1489.17 1563.78 1489.17 1563.78C1489.17 1563.77 1489.17 1563.77 1489.17 1563.76C1489.17 1563.76 1489.17 1563.75 1489.17 1563.75C1489.17 1563.74 1489.17 1563.74 1489.17 1563.73C1489.17 1563.73 1489.17 1563.72 1489.17 1563.72C1489.17 1563.72 1489.17 1563.71 1489.17 1563.71C1489.17 1563.7 1489.17 1563.7 1489.17 1563.69C1489.17 1563.69 1489.17 1563.68 1489.17 1563.68C1489.17 1563.67 1489.17 1563.67 1489.17 1563.66C1489.17 1563.66 1489.17 1563.65 1489.17 1563.65H1484.17ZM1484.17 1570.85H1479.17C1479.17 1578.54 1480.29 1586.21 1482.52 1593.85L1487.32 1592.45L1492.12 1591.05C1490.14 1584.29 1489.17 1577.56 1489.17 1570.85H1484.17ZM1487.32 1592.45L1482.53 1593.91C1484.77 1601.27 1487.99 1608.04 1492.19 1614.17L1496.32 1611.35L1500.44 1608.53C1496.84 1603.26 1494.06 1597.43 1492.1 1590.99L1487.32 1592.45ZM1496.32 1611.35L1492.37 1614.42C1496.99 1620.37 1502.75 1625.29 1509.59 1629.19L1512.07 1624.85L1514.55 1620.51C1508.78 1617.21 1504.04 1613.13 1500.26 1608.28L1496.32 1611.35ZM1512.07 1624.85L1509.75 1629.28C1516.91 1633.03 1525.24 1634.8 1534.57 1634.8V1629.8V1624.8C1526.5 1624.8 1519.83 1623.27 1514.39 1620.42L1512.07 1624.85ZM1534.57 1629.8V1634.8C1549.94 1634.8 1562.73 1629.5 1572.47 1618.76L1568.77 1615.4L1565.06 1612.04C1557.4 1620.5 1547.39 1624.8 1534.57 1624.8V1629.8ZM1568.77 1615.4L1572.41 1618.82C1582.41 1608.16 1587.27 1594.58 1587.27 1578.5H1582.27H1577.27C1577.27 1592.42 1573.13 1603.44 1565.12 1611.98L1568.77 1615.4Z" fill="white" mask="url(#path-6-outside-1_959_45)"/>
</g>
<defs>
<filter id="filter0_ddd_959_45" x="150.071" y="0" width="1999.86" height="2308" filterUnits="userSpaceOnUse" color-interpolation-filters="sRGB">
<feFlood flood-opacity="0" result="BackgroundImageFix"/>
<feColorMatrix in="SourceAlpha" type="matrix" values="0 0 0 0 0 0 0 0 0 0 0 0 0 0 0 0 0 0 127 0" result="hardAlpha"/>
<feOffset dy="4"/>
<feGaussianBlur stdDeviation="2"/>
<feComposite in2="hardAlpha" operator="out"/>
<feColorMatrix type="matrix" values="0 0 0 0 0 0 0 0 0 0 0 0 0 0 0 0 0 0 0.25 0"/>
<feBlend mode="normal" in2="BackgroundImageFix" result="effect1_dropShadow_959_45"/>
<feColorMatrix in="SourceAlpha" type="matrix" values="0 0 0 0 0 0 0 0 0 0 0 0 0 0 0 0 0 0 127 0" result="hardAlpha"/>
<feOffset dy="4"/>
<feGaussianBlur stdDeviation="2"/>
<feComposite in2="hardAlpha" operator="out"/>
<feColorMatrix type="matrix" values="0 0 0 0 0 0 0 0 0 0 0 0 0 0 0 0 0 0 0.25 0"/>
<feBlend mode="normal" in2="effect1_dropShadow_959_45" result="effect2_dropShadow_959_45"/>
<feColorMatrix in="SourceAlpha" type="matrix" values="0 0 0 0 0 0 0 0 0 0 0 0 0 0 0 0 0 0 127 0" result="hardAlpha"/>
<feOffset dy="4"/>
<feGaussianBlur stdDeviation="2"/>
<feComposite in2="hardAlpha" operator="out"/>
<feColorMatrix type="matrix" values="0 0 0 0 0 0 0 0 0 0 0 0 0 0 0 0 0 0 0.25 0"/>
<feBlend mode="normal" in2="effect2_dropShadow_959_45" result="effect3_dropShadow_959_45"/>
<feBlend mode="normal" in="SourceGraphic" in2="effect3_dropShadow_959_45" result="shape"/>
</filter>
<filter id="filter1_ddd_959_45" x="577.74" y="556.78" width="1138.6" height="220.98" filterUnits="userSpaceOnUse" color-interpolation-filters="sRGB">
<feFlood flood-opacity="0" result="BackgroundImageFix"/>
<feColorMatrix in="SourceAlpha" type="matrix" values="0 0 0 0 0 0 0 0 0 0 0 0 0 0 0 0 0 0 127 0" result="hardAlpha"/>
<feOffset dy="4"/>
<feGaussianBlur stdDeviation="2"/>
<feComposite in2="hardAlpha" operator="out"/>
<feColorMatrix type="matrix" values="0 0 0 0 0 0 0 0 0 0 0 0 0 0 0 0 0 0 0.25 0"/>
<feBlend mode="normal" in2="BackgroundImageFix" result="effect1_dropShadow_959_45"/>
<feColorMatrix in="SourceAlpha" type="matrix" values="0 0 0 0 0 0 0 0 0 0 0 0 0 0 0 0 0 0 127 0" result="hardAlpha"/>
<feOffset dy="4"/>
<feGaussianBlur stdDeviation="2"/>
<feComposite in2="hardAlpha" operator="out"/>
<feColorMatrix type="matrix" values="0 0 0 0 0 0 0 0 0 0 0 0 0 0 0 0 0 0 0.25 0"/>
<feBlend mode="normal" in2="effect1_dropShadow_959_45" result="effect2_dropShadow_959_45"/>
<feColorMatrix in="SourceAlpha" type="matrix" values="0 0 0 0 0 0 0 0 0 0 0 0 0 0 0 0 0 0 127 0" result="hardAlpha"/>
<feOffset dy="4"/>
<feGaussianBlur stdDeviation="2"/>
<feComposite in2="hardAlpha" operator="out"/>
<feColorMatrix type="matrix" values="0 0 0 0 0 0 0 0 0 0 0 0 0 0 0 0 0 0 0.25 0"/>
<feBlend mode="normal" in2="effect2_dropShadow_959_45" result="effect3_dropShadow_959_45"/>
<feBlend mode="normal" in="SourceGraphic" in2="effect3_dropShadow_959_45" result="shape"/>
</filter>
<filter id="filter2_ddd_959_45" x="458.8" y="799.6" width="1378.86" height="444.8" filterUnits="userSpaceOnUse" color-interpolation-filters="sRGB">
<feFlood flood-opacity="0" result="BackgroundImageFix"/>
<feColorMatrix in="SourceAlpha" type="matrix" values="0 0 0 0 0 0 0 0 0 0 0 0 0 0 0 0 0 0 127 0" result="hardAlpha"/>
<feOffset dy="4"/>
<feGaussianBlur stdDeviation="2"/>
<feComposite in2="hardAlpha" operator="out"/>
<feColorMatrix type="matrix" values="0 0 0 0 0 0 0 0 0 0 0 0 0 0 0 0 0 0 0.25 0"/>
<feBlend mode="normal" in2="BackgroundImageFix" result="effect1_dropShadow_959_45"/>
<feColorMatrix in="SourceAlpha" type="matrix" values="0 0 0 0 0 0 0 0 0 0 0 0 0 0 0 0 0 0 127 0" result="hardAlpha"/>
<feOffset dy="4"/>
<feGaussianBlur stdDeviation="2"/>
<feComposite in2="hardAlpha" operator="out"/>
<feColorMatrix type="matrix" values="0 0 0 0 0 0 0 0 0 0 0 0 0 0 0 0 0 0 0.25 0"/>
<feBlend mode="normal" in2="effect1_dropShadow_959_45" result="effect2_dropShadow_959_45"/>
<feColorMatrix in="SourceAlpha" type="matrix" values="0 0 0 0 0 0 0 0 0 0 0 0 0 0 0 0 0 0 127 0" result="hardAlpha"/>
<feOffset dy="4"/>
<feGaussianBlur stdDeviation="2"/>
<feComposite in2="hardAlpha" operator="out"/>
<feColorMatrix type="matrix" values="0 0 0 0 0 0 0 0 0 0 0 0 0 0 0 0 0 0 0.25 0"/>
<feBlend mode="normal" in2="effect2_dropShadow_959_45" result="effect3_dropShadow_959_45"/>
<feBlend mode="normal" in="SourceGraphic" in2="effect3_dropShadow_959_45" result="shape"/>
</filter>
<filter id="filter3_ddd_959_45" x="659.479" y="1346.03" width="988.488" height="346.269" filterUnits="userSpaceOnUse" color-interpolation-filters="sRGB">
<feFlood flood-opacity="0" result="BackgroundImageFix"/>
<feColorMatrix in="SourceAlpha" type="matrix" values="0 0 0 0 0 0 0 0 0 0 0 0 0 0 0 0 0 0 127 0" result="hardAlpha"/>
<feOffset dy="4"/>
<feGaussianBlur stdDeviation="2"/>
<feComposite in2="hardAlpha" operator="out"/>
<feColorMatrix type="matrix" values="0 0 0 0 0 0 0 0 0 0 0 0 0 0 0 0 0 0 0.25 0"/>
<feBlend mode="normal" in2="BackgroundImageFix" result="effect1_dropShadow_959_45"/>
<feColorMatrix in="SourceAlpha" type="matrix" values="0 0 0 0 0 0 0 0 0 0 0 0 0 0 0 0 0 0 127 0" result="hardAlpha"/>
<feOffset dy="4"/>
<feGaussianBlur stdDeviation="2"/>
<feComposite in2="hardAlpha" operator="out"/>
<feColorMatrix type="matrix" values="0 0 0 0 0 0 0 0 0 0 0 0 0 0 0 0 0 0 0.25 0"/>
<feBlend mode="normal" in2="effect1_dropShadow_959_45" result="effect2_dropShadow_959_45"/>
<feColorMatrix in="SourceAlpha" type="matrix" values="0 0 0 0 0 0 0 0 0 0 0 0 0 0 0 0 0 0 127 0" result="hardAlpha"/>
<feOffset dy="4"/>
<feGaussianBlur stdDeviation="2"/>
<feComposite in2="hardAlpha" operator="out"/>
<feColorMatrix type="matrix" values="0 0 0 0 0 0 0 0 0 0 0 0 0 0 0 0 0 0 0.25 0"/>
<feBlend mode="normal" in2="effect2_dropShadow_959_45" result="effect3_dropShadow_959_45"/>
<feBlend mode="normal" in="SourceGraphic" in2="effect3_dropShadow_959_45" result="shape"/>
</filter>
<linearGradient id="paint0_linear_959_45" x1="1150" y1="0" x2="1150" y2="2300" gradientUnits="userSpaceOnUse">
<stop stop-color="#52A5D9"/>
<stop offset="1" stop-color="#1C4183"/>
</linearGradient>
<linearGradient id="paint1_linear_959_45" x1="1150" y1="1282" x2="1214" y2="2038.5" gradientUnits="userSpaceOnUse">
<stop stop-color="#FFCD43"/>
<stop offset="1" stop-color="#C23730"/>
</linearGradient>
</defs>
</svg>
