<svg width="599" height="558" viewBox="0 0 599 558" fill="none" xmlns="http://www.w3.org/2000/svg">
<g clip-path="url(#clip0_1114_2)">
<path d="M512.78 102.553H505.246C505.097 102.553 504.949 102.582 504.81 102.639C504.672 102.697 504.547 102.78 504.441 102.886C504.335 102.992 504.252 103.117 504.194 103.255C504.137 103.393 504.108 103.542 504.108 103.691V152.3H409.961V1.138C409.961 0.988519 409.932 0.840479 409.875 0.702351C409.818 0.564223 409.734 0.438719 409.628 0.33302C409.522 0.22732 409.397 0.143501 409.259 0.0863576C409.121 0.0292144 408.973 -0.000131088 408.823 4.40181e-07H401.289C400.987 4.40181e-07 400.698 0.119897 400.484 0.333313C400.271 0.546729 400.151 0.836184 400.151 1.138V45.685H290.421V1.138C290.421 0.988519 290.392 0.840479 290.335 0.702351C290.278 0.564223 290.194 0.438719 290.088 0.33302C289.982 0.22732 289.857 0.143501 289.719 0.0863576C289.581 0.0292144 289.433 -0.000131088 289.283 4.40181e-07H281.749C281.6 3.82399e-07 281.452 0.0294429 281.314 0.086645C281.176 0.143847 281.05 0.227687 280.945 0.333374C280.839 0.43906 280.755 0.56452 280.698 0.702582C280.641 0.840645 280.612 0.988603 280.612 1.138V132.458H172.7V67.731C172.7 67.5816 172.671 67.4336 172.613 67.2955C172.556 67.1574 172.472 67.032 172.367 66.9263C172.261 66.8206 172.136 66.7368 171.998 66.6796C171.86 66.6224 171.712 66.593 171.562 66.593H164.028C163.726 66.5933 163.437 66.7133 163.224 66.9267C163.011 67.1401 162.891 67.4294 162.891 67.731V207.264H80.9671V187.017C80.9672 186.868 80.9379 186.72 80.8808 186.582C80.8238 186.444 80.74 186.318 80.6344 186.212C80.5288 186.107 80.4035 186.023 80.2654 185.966C80.1274 185.908 79.9795 185.879 79.8301 185.879H72.3001C72.1506 185.879 72.0026 185.908 71.8645 185.965C71.7263 186.023 71.6008 186.106 71.4951 186.212C71.3894 186.318 71.3056 186.443 71.2485 186.581C71.1913 186.719 71.162 186.868 71.1621 187.017V238.458H80.9711V217.073H162.898V238.458H172.7V142.268H280.612V238.458H290.421V55.5H400.151V238.458H409.961V162.111H504.108V238.458H513.917V103.691C513.917 103.542 513.888 103.394 513.831 103.256C513.774 103.118 513.69 102.992 513.584 102.886C513.479 102.781 513.353 102.697 513.215 102.64C513.077 102.582 512.93 102.553 512.78 102.553Z" fill="#01A59E"/>
<path d="M52.9541 237.637H532.121V554.406C532.121 555.311 531.761 556.179 531.121 556.819C530.481 557.459 529.613 557.819 528.708 557.819H56.3671C55.4619 557.819 54.5938 557.459 53.9537 556.819C53.3137 556.179 52.9541 555.311 52.9541 554.406V237.637Z" fill="#F3F5FD"/>
<path d="M140.66 358.996H89.6921C88.7494 358.996 87.9851 359.76 87.9851 360.703V411.671C87.9851 412.614 88.7494 413.378 89.6921 413.378H140.66C141.603 413.378 142.367 412.614 142.367 411.671V360.703C142.367 359.76 141.603 358.996 140.66 358.996Z" fill="#01A59E"/>
<path d="M229.341 358.996H178.373C177.43 358.996 176.666 359.76 176.666 360.703V411.671C176.666 412.614 177.43 413.378 178.373 413.378H229.341C230.284 413.378 231.048 412.614 231.048 411.671V360.703C231.048 359.76 230.284 358.996 229.341 358.996Z" fill="#01A59E"/>
<path d="M318.021 358.996H267.053C266.11 358.996 265.346 359.76 265.346 360.703V411.671C265.346 412.614 266.11 413.378 267.053 413.378H318.021C318.964 413.378 319.728 412.614 319.728 411.671V360.703C319.728 359.76 318.964 358.996 318.021 358.996Z" fill="#01A59E"/>
<path d="M406.702 358.996H355.734C354.791 358.996 354.027 359.76 354.027 360.703V411.671C354.027 412.614 354.791 413.378 355.734 413.378H406.702C407.645 413.378 408.409 412.614 408.409 411.671V360.703C408.409 359.76 407.645 358.996 406.702 358.996Z" fill="#01A59E"/>
<path d="M495.383 358.996H444.415C443.472 358.996 442.708 359.76 442.708 360.703V411.671C442.708 412.614 443.472 413.378 444.415 413.378H495.383C496.326 413.378 497.09 412.614 497.09 411.671V360.703C497.09 359.76 496.326 358.996 495.383 358.996Z" fill="#01A59E"/>
<path d="M140.66 272.732H89.6921C88.7494 272.732 87.9851 273.496 87.9851 274.439V325.407C87.9851 326.35 88.7494 327.114 89.6921 327.114H140.66C141.603 327.114 142.367 326.35 142.367 325.407V274.439C142.367 273.496 141.603 272.732 140.66 272.732Z" fill="#01A59E"/>
<path d="M229.341 272.732H178.373C177.43 272.732 176.666 273.496 176.666 274.439V325.407C176.666 326.35 177.43 327.114 178.373 327.114H229.341C230.284 327.114 231.048 326.35 231.048 325.407V274.439C231.048 273.496 230.284 272.732 229.341 272.732Z" fill="#01A59E"/>
<path d="M318.021 272.732H267.053C266.11 272.732 265.346 273.496 265.346 274.439V325.407C265.346 326.35 266.11 327.114 267.053 327.114H318.021C318.964 327.114 319.728 326.35 319.728 325.407V274.439C319.728 273.496 318.964 272.732 318.021 272.732Z" fill="#01A59E"/>
<path d="M406.702 272.732H355.734C354.791 272.732 354.027 273.496 354.027 274.439V325.407C354.027 326.35 354.791 327.114 355.734 327.114H406.702C407.645 327.114 408.409 326.35 408.409 325.407V274.439C408.409 273.496 407.645 272.732 406.702 272.732Z" fill="#01A59E"/>
<path d="M495.383 272.732H444.415C443.472 272.732 442.708 273.496 442.708 274.439V325.407C442.708 326.35 443.472 327.114 444.415 327.114H495.383C496.326 327.114 497.09 326.35 497.09 325.407V274.439C497.09 273.496 496.326 272.732 495.383 272.732Z" fill="#01A59E"/>
<path d="M236.346 445.261H303.7V557.819H234.64V446.967C234.64 446.515 234.82 446.081 235.14 445.761C235.46 445.441 235.894 445.261 236.346 445.261Z" fill="#FAFAFA"/>
<path d="M242.183 451.1H297.863V557.819H240.476V452.8C240.478 452.348 240.659 451.916 240.979 451.597C241.298 451.279 241.732 451.1 242.183 451.1Z" fill="#00A59E"/>
<path d="M290.807 500.195C292.479 500.195 293.834 498.84 293.834 497.168C293.834 495.496 292.479 494.141 290.807 494.141C289.135 494.141 287.78 495.496 287.78 497.168C287.78 498.84 289.135 500.195 290.807 500.195Z" fill="#FAFAFA"/>
<path d="M366.923 557.819H297.863V445.261H365.216C365.669 445.261 366.103 445.441 366.423 445.761C366.743 446.081 366.923 446.515 366.923 446.968V557.819Z" fill="#FAFAFA"/>
<path d="M361.085 557.816H303.699V451.097H359.379C359.832 451.097 360.266 451.277 360.586 451.597C360.906 451.917 361.086 452.351 361.086 452.804V557.816H361.085Z" fill="#00A59E"/>
<path d="M310.755 500.195C312.427 500.195 313.782 498.84 313.782 497.168C313.782 495.496 312.427 494.141 310.755 494.141C309.083 494.141 307.728 495.496 307.728 497.168C307.728 498.84 309.083 500.195 310.755 500.195Z" fill="#FAFAFA"/>
<path d="M479.648 547L500.5 544.52C499.562 536.628 498.5 527.146 498.428 525.591C498.433 525.691 498.433 525.773 498.433 525.837H477.433C477.434 526.466 477.434 528.383 479.648 547Z" fill="#E98862"/>
<path d="M563.324 549.51L584.324 549.442C584.324 549.442 584.253 527.758 584.253 525.837H563.253C563.253 527.763 563.324 549.51 563.324 549.51Z" fill="#E98862"/>
<path d="M537.795 557.632C537.23 557.629 536.672 557.51 536.156 557.282C535.639 557.054 535.175 556.722 534.792 556.307C534.41 555.891 534.117 555.401 533.933 554.868C533.748 554.334 533.675 553.768 533.719 553.205C533.78 552.425 534.063 551.678 534.534 551.053C535.005 550.427 535.645 549.95 536.378 549.676L560.82 541.49C561.294 541.333 561.795 541.28 562.291 541.335C562.787 541.39 563.265 541.552 563.693 541.809C567.053 544.14 571.072 545.332 575.16 545.209C578.344 544.983 581.401 543.866 583.981 541.987C584.208 541.801 584.483 541.683 584.774 541.647C585.065 541.612 585.36 541.659 585.625 541.785C585.89 541.911 586.114 542.11 586.27 542.358C586.426 542.606 586.509 542.894 586.508 543.187V555.139C586.508 555.492 586.438 555.841 586.303 556.166C586.168 556.492 585.97 556.788 585.72 557.037C585.47 557.285 585.173 557.482 584.847 557.616C584.521 557.75 584.172 557.818 583.819 557.817L537.795 557.632Z" fill="#038479"/>
<path d="M454.062 557.632C453.497 557.629 452.939 557.51 452.422 557.282C451.906 557.054 451.442 556.722 451.059 556.307C450.676 555.891 450.384 555.401 450.199 554.868C450.014 554.334 449.942 553.768 449.986 553.205C450.047 552.425 450.329 551.678 450.8 551.053C451.271 550.427 451.911 549.95 452.644 549.676L477.087 541.49C477.56 541.333 478.062 541.28 478.558 541.335C479.054 541.39 479.532 541.552 479.959 541.809C483.319 544.14 487.339 545.332 491.427 545.209C494.611 544.983 497.667 543.866 500.247 541.987C500.474 541.801 500.749 541.683 501.04 541.648C501.331 541.612 501.626 541.66 501.891 541.786C502.156 541.911 502.38 542.11 502.536 542.358C502.693 542.606 502.776 542.894 502.775 543.187V555.139C502.775 555.492 502.705 555.841 502.57 556.166C502.435 556.492 502.236 556.788 501.987 557.037C501.737 557.285 501.44 557.482 501.114 557.616C500.788 557.75 500.438 557.818 500.086 557.817L454.062 557.632Z" fill="#038479"/>
<path d="M508.9 540.369L471.9 539.739C473.638 495.707 473.744 449.52 474.286 405.382C481.507 357.808 485.31 305.566 494.221 258.333L494.488 258.412L495.27 253.082L571.347 248.382L574.307 298.087H574.073C578.046 369.48 585.216 470.037 589.735 539.174L552.867 542.29C546.224 474.504 535.944 375.734 529.621 304.523C522.36 339.193 517.421 375.091 511.107 409.463C509.845 452.491 508.778 497.47 508.9 540.369Z" fill="#262626"/>
<path d="M540.2 127.828C540.19 127.548 540.19 127.278 540.19 126.988C540.18 125.168 540.26 123.188 540.44 121.028L538.921 120.748H538.91L524.46 118.068C524.737 121.619 524.683 125.187 524.3 128.728C524.25 129.128 524.2 129.538 524.14 129.948C524.13 129.988 524.13 130.018 524.12 130.058C524.06 130.498 523.99 130.948 523.91 131.388C523.83 131.828 523.76 132.248 523.66 132.678C523.65 132.718 523.65 132.748 523.64 132.778C523.55 133.218 523.45 133.638 523.33 134.058C523.22 134.498 523.1 134.928 522.96 135.358C522.85 135.728 522.73 136.088 522.59 136.448C522.55 136.558 522.51 136.678 522.46 136.788C522.33 137.148 522.18 137.498 522.02 137.838C521.85 138.228 521.66 138.608 521.46 138.978C521.457 138.978 521.455 138.979 521.453 138.981C521.451 138.983 521.45 138.985 521.45 138.988C520.696 140.465 519.636 141.764 518.34 142.798H543.47C541.921 140.118 540.32 135.518 540.2 127.838V127.828Z" fill="#E98862"/>
<path opacity="0.15" d="M521.449 138.993L534.721 128.839L524.297 128.731C523.995 132.299 523.029 135.779 521.449 138.993Z" fill="black"/>
<path d="M549.5 112.865C548.394 119.253 544.907 125.303 539.272 127.365C532.583 129.815 527.628 129.981 519.915 129.981C509.389 129.981 509.737 119.004 509.442 107.943C509.142 96.837 510.028 84.924 514.188 81.054C522.488 73.33 546.861 78.222 549.825 91.141C551.363 97.825 550.556 106.784 549.5 112.865Z" fill="#E98862"/>
<path d="M539.693 126.761C540.025 127.823 540.257 128.286 541.214 127.717C544.97 125.486 553.423 120.629 556.303 102.435C558.884 86.135 548.827 79.409 540.803 77.01C533.89 74.942 525.241 73.892 517.669 78.456C511.144 82.389 510.184 92.156 510.184 92.156C513.068 92.289 513.649 94.768 520.453 94.768C525.713 94.768 529.133 92.417 534.058 92.624C538.566 92.814 539.492 95.562 539.332 97.324C538.366 108.011 538.519 123.005 539.693 126.761Z" fill="#0F1011"/>
<path d="M524.485 107.944C525.285 107.944 525.934 107.295 525.934 106.495C525.934 105.695 525.285 105.046 524.485 105.046C523.685 105.046 523.036 105.695 523.036 106.495C523.036 107.295 523.685 107.944 524.485 107.944Z" fill="#0F1011"/>
<path d="M513.054 107.006C513.854 107.006 514.503 106.357 514.503 105.557C514.503 104.757 513.854 104.108 513.054 104.108C512.254 104.108 511.605 104.757 511.605 105.557C511.605 106.357 512.254 107.006 513.054 107.006Z" fill="#0F1011"/>
<path d="M510.543 102.47H510.551L514.39 102.422C514.479 102.421 514.568 102.402 514.65 102.367C514.732 102.331 514.806 102.28 514.869 102.216C514.931 102.152 514.98 102.076 515.014 101.993C515.047 101.91 515.063 101.821 515.062 101.732C515.065 101.641 515.049 101.551 515.016 101.467C514.982 101.383 514.931 101.307 514.866 101.244C514.801 101.181 514.724 101.132 514.639 101.1C514.554 101.069 514.463 101.055 514.373 101.061L510.534 101.108C510.353 101.109 510.181 101.182 510.054 101.311C509.927 101.439 509.856 101.613 509.857 101.793C509.859 101.974 509.932 102.147 510.06 102.274C510.189 102.401 510.362 102.471 510.543 102.47Z" fill="#0F1011"/>
<path d="M527.613 103.869C527.78 103.869 527.94 103.807 528.064 103.696C528.189 103.585 528.268 103.433 528.288 103.268C528.307 103.102 528.265 102.935 528.17 102.799C528.075 102.662 527.933 102.565 527.771 102.526L523.987 101.615C523.899 101.592 523.808 101.586 523.718 101.599C523.628 101.612 523.542 101.642 523.464 101.689C523.386 101.735 523.318 101.797 523.264 101.87C523.211 101.943 523.172 102.026 523.151 102.114C523.13 102.203 523.126 102.294 523.141 102.384C523.156 102.473 523.188 102.559 523.236 102.636C523.285 102.713 523.348 102.779 523.422 102.831C523.496 102.883 523.58 102.92 523.669 102.939L527.453 103.851C527.506 103.863 527.559 103.869 527.613 103.869Z" fill="#0F1011"/>
<path d="M532.023 110.04C531.945 110.85 532.029 111.668 532.27 112.446C532.511 113.223 532.904 113.945 533.427 114.569C533.949 115.194 534.591 115.708 535.314 116.082C536.036 116.456 536.826 116.683 537.638 116.749C538.449 116.816 539.266 116.72 540.04 116.468C540.814 116.216 541.53 115.813 542.147 115.281C542.763 114.75 543.269 114.102 543.633 113.374C543.996 112.645 544.212 111.852 544.267 111.04C544.347 110.233 544.264 109.419 544.022 108.645C543.781 107.871 543.386 107.154 542.862 106.536C542.337 105.918 541.694 105.412 540.97 105.048C540.246 104.683 539.456 104.469 538.647 104.416C534.269 104.277 532.3 106.659 532.023 110.04Z" fill="#E98862"/>
<g opacity="0.15">
<path d="M518.053 114.532C518.173 114.532 518.289 114.489 518.379 114.411C518.47 114.333 518.53 114.225 518.548 114.106C518.566 113.988 518.54 113.867 518.476 113.766C518.413 113.664 518.314 113.589 518.2 113.554L515.253 112.649L517.314 108.059C517.341 107.999 517.356 107.935 517.358 107.869C517.36 107.803 517.349 107.738 517.326 107.676C517.302 107.615 517.267 107.559 517.222 107.511C517.177 107.463 517.123 107.425 517.063 107.398C517.004 107.371 516.939 107.356 516.873 107.354C516.808 107.352 516.742 107.363 516.681 107.386C516.619 107.409 516.563 107.444 516.515 107.489C516.467 107.534 516.429 107.588 516.402 107.648L514.109 112.755C514.08 112.82 514.065 112.89 514.065 112.961C514.065 113.032 514.08 113.102 514.109 113.166C514.139 113.231 514.181 113.288 514.234 113.335C514.288 113.382 514.35 113.417 514.418 113.438L517.906 114.51C517.954 114.525 518.003 114.532 518.053 114.532Z" fill="black"/>
</g>
<path d="M523.815 117.906C523.815 117.906 518.466 118.471 514.715 117.16C514.715 117.16 514.745 120.683 518.977 121.03C523.209 121.377 523.815 117.906 523.815 117.906Z" fill="#F8FCFF"/>
<path d="M557.53 100.356C557.873 96.9724 557.538 93.5543 556.546 90.3015C555.553 87.0487 553.922 84.0263 551.748 81.4109C549.574 78.7955 546.901 76.6394 543.884 75.0687C540.868 73.498 537.568 72.544 534.179 72.2626C530.79 71.9812 527.378 72.3779 524.144 73.4296C520.91 74.4813 517.917 76.167 515.342 78.388C512.766 80.6091 510.659 83.3211 509.144 86.3656C507.628 89.4101 506.734 92.7261 506.514 96.12" fill="#287468"/>
<path opacity="0.22" d="M517.991 97.319C517.991 97.319 517.577 79.534 537.222 73.178C537.222 73.178 535.044 72.805 534.311 72.744C533.215 72.6294 532.111 72.602 531.011 72.662C531.011 72.662 511.617 77.142 510.262 96.431L517.991 97.319Z" fill="white"/>
<path d="M504.889 97.5279L558.901 102.012L559.114 99.443L505.102 94.9588L504.889 97.5279Z" fill="#287468"/>
<path opacity="0.09" d="M504.889 97.5279L558.901 102.012L559.114 99.443L505.102 94.9588L504.889 97.5279Z" fill="black"/>
<path opacity="0.63" d="M540.023 76.126C537.064 75.9046 534.107 76.574 531.532 78.048C525.019 81.858 524.632 86.558 524.632 86.558C524.632 86.558 531.164 76.478 540.023 76.126Z" fill="white"/>
<path d="M514.37 93.338C516.474 93.338 518.179 91.6326 518.179 89.529C518.179 87.4253 516.474 85.72 514.37 85.72C512.266 85.72 510.561 87.4253 510.561 89.529C510.561 91.6326 512.266 93.338 514.37 93.338Z" fill="#287468"/>
<path opacity="0.09" d="M514.37 93.338C516.474 93.338 518.179 91.6326 518.179 89.529C518.179 87.4253 516.474 85.72 514.37 85.72C512.266 85.72 510.561 87.4253 510.561 89.529C510.561 91.6326 512.266 93.338 514.37 93.338Z" fill="black"/>
<path d="M512.495 93.182C514.599 93.182 516.304 91.4766 516.304 89.373C516.304 87.2693 514.599 85.564 512.495 85.564C510.391 85.564 508.686 87.2693 508.686 89.373C508.686 91.4766 510.391 93.182 512.495 93.182Z" fill="#287468"/>
<path opacity="0.13" d="M512.495 93.182C514.599 93.182 516.304 91.4766 516.304 89.373C516.304 87.2693 514.599 85.564 512.495 85.564C510.391 85.564 508.686 87.2693 508.686 89.373C508.686 91.4766 510.391 93.182 512.495 93.182Z" fill="white"/>
<path opacity="0.36" d="M512.495 91.37C513.598 91.37 514.492 90.4759 514.492 89.373C514.492 88.2701 513.598 87.376 512.495 87.376C511.392 87.376 510.498 88.2701 510.498 89.373C510.498 90.4759 511.392 91.37 512.495 91.37Z" fill="white"/>
<path d="M424.408 170.059C422.202 168.059 415.885 160.194 413.656 161.589C412.32 162.425 415.789 169.311 415.789 169.311" fill="#E5A5A0"/>
<path d="M403.074 163.96C400.174 167.155 403.8 172.313 406.929 175.22C415.954 183.604 424.146 188.76 427.047 185.565C429.948 182.37 424.212 173.249 414.498 165.675C410.478 162.542 405.975 160.766 403.074 163.96Z" fill="#E5A5A0"/>
<path d="M463.374 224.837C465.165 224.837 466.929 224.396 468.51 223.553C470.09 222.709 471.438 221.489 472.435 220L511.669 161.367L495.4 147.276L461.136 197.682L423.3 165.364L409.138 181.943L456.296 222.224C458.269 223.91 460.779 224.836 463.374 224.837Z" fill="#C99C47"/>
<path d="M489.2 256.429C493.39 266.059 575.72 270.059 576.82 253.119C577.52 242.339 568.02 232.929 568.02 211.919C568.02 190.909 587.35 164.079 571.6 148.329C567.03 143.759 559.14 140.809 549.52 140.799C548.8 146.409 539.26 155.939 526.96 155.129C517.73 154.519 514.74 146.429 514.48 140.929C513.18 140.949 512.17 140.969 511.54 140.999C478.36 142.429 492.94 180.189 493.26 207.929C493.652 240.389 484.882 246.509 489.2 256.429Z" fill="#C99C47"/>
<path d="M514.482 140.929C514.742 146.429 517.732 154.519 526.962 155.129C539.262 155.939 548.802 146.409 549.522 140.799H549.492C537.382 140.8 521.542 140.819 514.482 140.929Z" fill="#E98862"/>
<path d="M517.241 140.8L514.717 269.26C514.717 269.26 487.88 269.513 483.108 264.741L490.398 198.956C490.398 198.956 505.29 184.934 503.249 141.976C503.249 141.976 511.217 139.76 517.241 140.8Z" fill="#287468"/>
<path d="M544.041 140.8L540.023 268.655C540.023 268.655 577.336 271.186 582.108 266.413L570.883 198.35C570.883 198.35 555.964 184.206 558.005 141.25C553.383 140.569 548.698 140.418 544.041 140.8Z" fill="#287468"/>
<path d="M488.6 215.212L515.76 216.032L515.84 212.032L508.54 211.812L512.18 140.562C510.834 140.63 509.492 140.767 508.16 140.972L504.55 211.692L489.04 211.222L488.6 215.212Z" fill="white"/>
<path d="M486.873 230.772L515.453 231.732L515.533 227.732L487.313 226.792L486.873 230.772Z" fill="white"/>
<path d="M541.7 215.232L572.84 216.062L572.4 212.052L552.26 211.512L553.95 140.782C552.81 140.702 551.47 140.632 549.95 140.622L548.26 211.402L541.83 211.232L541.7 215.232Z" fill="white"/>
<path d="M541.133 233.452H574.773L574.333 229.452H541.253L541.133 233.452Z" fill="white"/>
<path d="M593.211 242.6C593.211 242.6 546.8 186.674 538.687 173.911L524.529 186.636C524.529 186.636 567.65 237.385 581.257 254.177C581.257 254.175 592.772 253.976 593.211 242.6Z" fill="#01A59E"/>
<path d="M535.476 184.129C539.335 180.452 540.691 175.611 538.504 173.316C536.318 171.021 531.417 172.142 527.558 175.82C523.699 179.497 522.343 184.338 524.529 186.633C526.716 188.927 531.617 187.806 535.476 184.129Z" fill="#038479"/>
<path d="M525.123 187.12C525.123 187.12 525.589 181.689 530.312 180.151L534.395 185.067C534.395 185.067 529.262 189.787 525.123 187.12Z" fill="#F3F5FD"/>
<path d="M589.958 236.634C589.958 236.634 532.258 196.623 521.007 186.518L510.8 202.587C510.8 202.587 563.937 238.5 581.565 251C581.565 251 592.6 247.71 589.958 236.634Z" fill="#01A59E"/>
<path opacity="0.23" d="M589.958 236.634C589.958 236.634 532.258 196.623 521.007 186.518L510.8 202.587C510.8 202.587 563.937 238.5 581.565 251C581.565 251 592.6 247.71 589.958 236.634Z" fill="white"/>
<path d="M520.668 197.227C523.394 192.645 523.395 187.618 520.672 185.997C517.948 184.377 513.53 186.776 510.804 191.357C508.078 195.938 508.077 200.966 510.801 202.587C513.525 204.207 517.942 201.808 520.668 197.227Z" fill="#038479"/>
<path d="M511.5 202.9C511.5 202.9 510.486 197.544 514.619 194.79L519.876 198.425C519.876 198.425 516.208 204.348 511.5 202.9Z" fill="#F3F5FD"/>
<path d="M529.838 212.543C522.567 212.543 517.238 201.065 517.238 212.804C517.238 224.543 536.313 225.404 536.313 225.404L535.67 212.416C535.67 212.416 531.496 207.522 529.801 207.522C528.106 207.522 529.838 212.543 529.838 212.543Z" fill="#E98862"/>
<path d="M536.456 231.2L587.711 228.956C589.417 228.882 591.081 228.408 592.57 227.573C594.059 226.737 595.331 225.564 596.284 224.147C597.236 222.73 597.843 221.109 598.054 219.415C598.265 217.721 598.075 216 597.5 214.393L576.021 154.849L561.921 179.665L571.99 207.819L535.5 209.419L536.456 231.2Z" fill="#C99C47"/>
<path d="M419.743 196.13C419.063 196.316 418.336 196.225 417.724 195.876C417.111 195.527 416.662 194.949 416.476 194.268L403.403 146.579L408.529 145.174L421.602 192.863C421.788 193.543 421.697 194.269 421.348 194.881C421 195.494 420.422 195.943 419.743 196.13Z" fill="#9EBCEA"/>
<path d="M390.587 139.836L392.635 139.275C392.836 139.22 393.047 139.205 393.254 139.231C393.462 139.257 393.662 139.324 393.843 139.427C394.025 139.531 394.184 139.669 394.312 139.834C394.44 139.999 394.535 140.188 394.59 140.389L394.741 140.939L397.848 140.087L397.282 138.022L408.841 134.854C408.841 134.854 415.051 134.111 420.141 140.679C420.141 140.679 414.341 139.815 410.75 141.827L411.85 145.842L400.291 149.011L399.725 146.946L396.617 147.797L396.768 148.348C396.823 148.549 396.838 148.76 396.813 148.967C396.787 149.174 396.72 149.375 396.617 149.556C396.513 149.738 396.375 149.897 396.21 150.025C396.045 150.153 395.856 150.248 395.655 150.303L393.607 150.864C393.405 150.919 393.195 150.934 392.988 150.908C392.78 150.882 392.58 150.815 392.399 150.712C392.217 150.608 392.058 150.47 391.93 150.305C391.802 150.14 391.707 149.952 391.652 149.75L389.47 141.791C389.415 141.589 389.4 141.379 389.427 141.171C389.453 140.964 389.52 140.764 389.624 140.582C389.727 140.401 389.866 140.241 390.031 140.113C390.196 139.985 390.385 139.891 390.587 139.836Z" fill="#C99C47"/>
<path d="M41.454 105.141C41.3 90.6081 48.047 81.6001 55.835 76.6571C63.519 71.7781 80.972 68.3121 90.108 86.0241C96.069 97.5821 96.36 100.932 98.049 119.443C99.738 137.954 106.226 139.897 112.804 162.334C117.965 179.934 89.058 189.278 64.021 188.47C38.984 187.662 23.121 182.121 21.664 166.198C19.579 143.347 41.748 133.621 41.454 105.141Z" fill="#0F1011"/>
<path d="M56.179 142.719C58.036 139.356 59.912 133.013 58.867 121.558L74.456 118.518C74.456 118.518 72.883 136.884 80.756 142.718L56.179 142.719Z" fill="#E98862"/>
<path opacity="0.15" d="M77.5859 138.944L64.5239 129.144L74.7109 128.944C75.0384 132.427 76.0134 135.819 77.5859 138.944Z" fill="black"/>
<path d="M49.932 113.659C51.071 119.893 54.532 125.774 60.058 127.74C66.0829 130.068 72.5861 130.886 79 130.123C96.081 128.565 92.343 89.728 84.158 82.253C75.973 74.778 52.2 79.777 49.419 92.431C47.981 98.976 48.849 107.725 49.932 113.659Z" fill="#E98862"/>
<path d="M74.3269 108.625C75.1089 108.625 75.7429 107.991 75.7429 107.209C75.7429 106.427 75.1089 105.793 74.3269 105.793C73.5449 105.793 72.9109 106.427 72.9109 107.209C72.9109 107.991 73.5449 108.625 74.3269 108.625Z" fill="#0F1011"/>
<path d="M85.4919 107.606C86.274 107.606 86.9079 106.972 86.9079 106.19C86.9079 105.408 86.274 104.774 85.4919 104.774C84.7099 104.774 84.0759 105.408 84.0759 106.19C84.0759 106.972 84.7099 107.606 85.4919 107.606Z" fill="#0F1011"/>
<path d="M87.9119 103.15L84.1599 103.137C83.9835 103.137 83.8144 103.067 83.6896 102.942C83.5649 102.818 83.4949 102.648 83.4949 102.472C83.4949 102.296 83.5649 102.126 83.6896 102.002C83.8144 101.877 83.9835 101.807 84.1599 101.807L87.9129 101.819C88.0849 101.826 88.2477 101.899 88.367 102.023C88.4864 102.147 88.5531 102.312 88.5531 102.485C88.5531 102.657 88.4864 102.822 88.367 102.946C88.2477 103.07 88.0839 103.143 87.9119 103.15Z" fill="#0F1011"/>
<path d="M71.2399 104.671C71.0772 104.672 70.9198 104.612 70.7978 104.505C70.6757 104.397 70.5974 104.248 70.5777 104.087C70.5579 103.925 70.5982 103.762 70.6908 103.628C70.7833 103.494 70.9218 103.399 71.0799 103.36L74.771 102.436C74.9421 102.393 75.1233 102.42 75.2747 102.511C75.426 102.602 75.5351 102.749 75.578 102.92C75.6208 103.091 75.5939 103.272 75.5031 103.424C75.4123 103.575 75.2651 103.684 75.0939 103.727L71.4029 104.651C71.3496 104.664 71.2949 104.671 71.2399 104.671Z" fill="#0F1011"/>
<path d="M75.085 118.356C75.085 118.356 80.318 118.856 83.97 117.545C83.97 117.545 83.97 120.989 79.839 121.366C75.708 121.743 75.085 118.356 75.085 118.356Z" fill="#F8FCFF"/>
<path d="M61.286 97.3761C60.914 125.576 58.196 136.532 58.196 136.532C58.196 136.532 44.843 120.4 42.827 103.306C40.938 87.2851 52.669 77.7061 60.637 75.8491C90.918 68.7851 90.925 91.6001 90.925 91.6001C88.967 99.1341 58.006 103.078 58.006 103.078" fill="#0F1011"/>
<path d="M67.233 113.378C67.3047 114.163 67.221 114.955 66.9867 115.708C66.7524 116.46 66.3721 117.16 65.8675 117.766C65.363 118.371 64.7441 118.872 64.0461 119.239C63.3481 119.605 62.5847 119.831 61.7995 119.903C61.0144 119.974 60.2228 119.89 59.4699 119.656C58.7171 119.422 58.0178 119.042 57.412 118.537C56.8061 118.032 56.3056 117.414 55.9389 116.716C55.5723 116.018 55.3467 115.254 55.275 114.469C55.1891 113.681 55.2627 112.884 55.4915 112.126C55.7202 111.367 56.0994 110.662 56.6065 110.054C57.1135 109.445 57.738 108.944 58.4427 108.582C59.1474 108.22 59.9178 108.003 60.708 107.945C64.986 107.766 66.931 110.076 67.233 113.378Z" fill="#E98862"/>
<g opacity="0.15">
<path d="M80.6821 115.006C80.5651 115.007 80.4517 114.966 80.3626 114.89C80.2735 114.814 80.2146 114.708 80.1967 114.593C80.1788 114.477 80.2029 114.359 80.2649 114.26C80.3268 114.16 80.4223 114.087 80.5341 114.052L83.4061 113.141L81.3501 108.673C81.2998 108.556 81.2973 108.424 81.343 108.305C81.3887 108.186 81.4791 108.089 81.5949 108.036C81.7107 107.983 81.8427 107.977 81.9628 108.019C82.083 108.062 82.1817 108.15 82.2381 108.264L84.5251 113.235C84.5539 113.298 84.5689 113.367 84.5692 113.436C84.5694 113.506 84.5549 113.574 84.5265 113.638C84.4981 113.701 84.4565 113.758 84.4046 113.804C84.3526 113.85 84.2914 113.884 84.2251 113.905L80.8251 114.983C80.7788 114.998 80.7306 115.006 80.6821 115.006Z" fill="black"/>
</g>
<path d="M41.2719 101.443C40.7489 97.9992 40.9115 94.486 41.7503 91.1053C42.5891 87.7245 44.0877 84.5428 46.1598 81.7429C48.232 78.943 50.8369 76.5802 53.8249 74.79C56.813 72.9999 60.1253 71.8178 63.5716 71.3116C67.0179 70.8054 70.5303 70.9851 73.9069 71.8404C77.2835 72.6957 80.4579 74.2097 83.2476 76.2955C86.0374 78.3813 88.3875 80.9977 90.1631 83.9945C91.9386 86.9912 93.1045 90.3093 93.5939 93.758" fill="#287468"/>
<path opacity="0.22" d="M81.839 95.74C81.839 95.74 81.109 77.377 60.439 72.102C60.439 72.102 62.66 71.575 63.412 71.465C64.5356 71.2751 65.6725 71.1748 66.812 71.165C66.812 71.165 87.1 74.524 89.749 94.322L81.839 95.74Z" fill="white"/>
<path d="M94.973 92.4652L39.5784 100.602L39.9654 103.236L95.36 95.0999L94.973 92.4652Z" fill="#287468"/>
<path opacity="0.09" d="M94.973 92.4652L39.5784 100.602L39.9654 103.236L95.36 95.0999L94.973 92.4652Z" fill="black"/>
<path opacity="0.63" d="M57.7458 75.323C60.7819 74.903 63.8742 75.401 66.6249 76.753C73.5879 80.253 74.2958 85.078 74.2958 85.078C74.2958 85.078 66.8998 75.11 57.7458 75.323Z" fill="white"/>
<path d="M85.0649 91.408C87.2381 91.408 88.9999 89.6462 88.9999 87.473C88.9999 85.2997 87.2381 83.538 85.0649 83.538C82.8916 83.538 81.1299 85.2997 81.1299 87.473C81.1299 89.6462 82.8916 91.408 85.0649 91.408Z" fill="#287468"/>
<path opacity="0.09" d="M85.0649 91.408C87.2381 91.408 88.9999 89.6462 88.9999 87.473C88.9999 85.2997 87.2381 83.538 85.0649 83.538C82.8916 83.538 81.1299 85.2997 81.1299 87.473C81.1299 89.6462 82.8916 91.408 85.0649 91.408Z" fill="black"/>
<path d="M86.989 91.125C89.1622 91.125 90.924 89.3633 90.924 87.19C90.924 85.0168 89.1622 83.255 86.989 83.255C84.8157 83.255 83.054 85.0168 83.054 87.19C83.054 89.3633 84.8157 91.125 86.989 91.125Z" fill="#287468"/>
<path opacity="0.13" d="M86.989 91.125C89.1622 91.125 90.924 89.3633 90.924 87.19C90.924 85.0168 89.1622 83.255 86.989 83.255C84.8157 83.255 83.054 85.0168 83.054 87.19C83.054 89.3633 84.8157 91.125 86.989 91.125Z" fill="white"/>
<path opacity="0.36" d="M86.9888 89.253C88.1281 89.253 89.0518 88.3293 89.0518 87.19C89.0518 86.0506 88.1281 85.127 86.9888 85.127C85.8494 85.127 84.9258 86.0506 84.9258 87.19C84.9258 88.3293 85.8494 89.253 86.9888 89.253Z" fill="white"/>
<path d="M125.193 268.524C125.193 271.504 123.62 281.466 126.15 282.178C127.668 282.605 129.46 275.178 129.46 275.178" fill="#E98862"/>
<path d="M77.272 301.259V341.239C77.2725 343.629 78.2221 345.92 79.9119 347.61C81.6017 349.299 83.8934 350.249 86.283 350.249H179.673C180.857 350.25 182.029 350.018 183.122 349.566C184.216 349.113 185.21 348.45 186.047 347.613C186.884 346.776 187.547 345.782 188 344.689C188.452 343.595 188.684 342.423 188.683 341.239V301.259C188.684 300.075 188.452 298.903 188 297.809C187.547 296.716 186.884 295.722 186.047 294.885C185.21 294.048 184.216 293.384 183.122 292.932C182.029 292.48 180.857 292.248 179.673 292.249H154.993V285.989C154.99 283.757 154.101 281.617 152.523 280.039C150.945 278.461 148.805 277.572 146.573 277.569H119.383C117.151 277.572 115.011 278.461 113.433 280.039C111.855 281.617 110.966 283.757 110.963 285.989V292.249H86.283C83.8934 292.249 81.6017 293.199 79.9119 294.888C78.2221 296.578 77.2725 298.869 77.272 301.259ZM149.513 292.249H116.443V285.989C116.444 285.21 116.754 284.463 117.306 283.912C117.857 283.36 118.604 283.05 119.383 283.049H146.573C147.352 283.05 148.099 283.36 148.65 283.912C149.201 284.463 149.512 285.21 149.513 285.989V292.249Z" fill="#9EBCEA"/>
<path d="M136.811 266.959C136.811 266.959 145.675 275.067 139.552 284.122C137.166 287.649 130.88 285.529 130.88 283.67C130.88 275.87 130.274 273.752 125.137 275.622L125.193 267.522" fill="#E98862"/>
<path opacity="0.21" d="M77.272 313.909V341.239C77.2725 343.629 78.2221 345.92 79.9119 347.61C81.6017 349.299 83.8934 350.249 86.283 350.249H179.673C180.857 350.25 182.029 350.018 183.122 349.566C184.216 349.113 185.21 348.45 186.047 347.613C186.884 346.776 187.547 345.782 188 344.688C188.452 343.595 188.684 342.423 188.683 341.239V313.909H77.272Z" fill="white"/>
<path d="M163.433 319.563H163.434C165.307 319.563 166.825 318.045 166.825 316.172V314.215C166.825 312.342 165.307 310.824 163.434 310.824H163.433C161.56 310.824 160.042 312.342 160.042 314.215V316.172C160.042 318.045 161.56 319.563 163.433 319.563Z" fill="white"/>
<path d="M102.52 319.563H102.521C104.394 319.563 105.912 318.045 105.912 316.172V314.215C105.912 312.342 104.394 310.824 102.521 310.824H102.52C100.647 310.824 99.1291 312.342 99.1291 314.215V316.172C99.1291 318.045 100.647 319.563 102.52 319.563Z" fill="white"/>
<path d="M96.9341 158.03L109.094 211.222L131.478 269.324" stroke="#C99C47" stroke-width="20" stroke-miterlimit="10"/>
<path d="M118.489 547L97.6362 544.52C98.5742 536.628 99.6362 527.146 99.7082 525.591C99.7082 525.691 99.7082 525.773 99.7082 525.837H120.708C120.7 526.466 120.7 528.383 118.489 547Z" fill="#E98862"/>
<path d="M34.8142 549.51L13.8142 549.442C13.8142 549.442 13.8842 527.758 13.8842 525.837H34.8842C34.8842 527.763 34.8142 549.51 34.8142 549.51Z" fill="#E98862"/>
<path d="M60.3422 557.632C60.9069 557.629 61.4649 557.51 61.9815 557.282C62.4982 557.054 62.9622 556.722 63.3447 556.307C63.7272 555.891 64.0199 555.401 64.2046 554.868C64.3893 554.334 64.462 553.768 64.4182 553.205C64.3574 552.424 64.0748 551.678 63.6037 551.052C63.1326 550.427 62.4926 549.95 61.7592 549.676L37.3172 541.49C36.8436 541.333 36.3417 541.28 35.8457 541.335C35.3498 541.39 34.8717 541.552 34.4442 541.809C31.0841 544.14 27.0648 545.332 22.9772 545.209C19.793 544.983 16.7365 543.866 14.1562 541.987C13.9295 541.801 13.6545 541.683 13.3634 541.647C13.0722 541.612 12.7769 541.659 12.512 541.785C12.247 541.911 12.0233 542.11 11.867 542.358C11.7107 542.606 11.6282 542.894 11.6292 543.187V555.139C11.6292 555.492 11.6988 555.841 11.8341 556.166C11.9693 556.492 12.1676 556.788 12.4174 557.037C12.6673 557.285 12.9638 557.482 13.29 557.616C13.6161 557.75 13.9656 557.818 14.3182 557.817L60.3422 557.632Z" fill="#038479"/>
<path d="M144.075 557.632C144.64 557.629 145.198 557.51 145.715 557.282C146.231 557.054 146.695 556.722 147.078 556.307C147.46 555.891 147.753 555.401 147.938 554.868C148.122 554.334 148.195 553.768 148.151 553.205C148.09 552.425 147.808 551.678 147.337 551.053C146.866 550.427 146.226 549.95 145.493 549.676L121.05 541.49C120.577 541.333 120.075 541.28 119.579 541.335C119.083 541.39 118.605 541.552 118.178 541.809C114.818 544.14 110.798 545.332 106.71 545.209C103.526 544.983 100.47 543.866 97.8901 541.987C97.6633 541.801 97.3882 541.683 97.0971 541.648C96.8059 541.612 96.5107 541.66 96.2457 541.786C95.9807 541.911 95.7569 542.11 95.6005 542.358C95.444 542.606 95.3613 542.894 95.3621 543.187V555.139C95.3621 555.492 95.4317 555.841 95.567 556.166C95.7022 556.492 95.9005 556.788 96.1503 557.037C96.4002 557.285 96.6967 557.482 97.0229 557.616C97.349 557.75 97.6985 557.818 98.0511 557.817L144.075 557.632Z" fill="#038479"/>
<path d="M89.2421 540.369L126.236 539.739C124.498 495.707 124.392 449.52 123.85 405.382C116.629 357.808 112.827 305.566 103.915 258.333L103.648 258.412L102.866 253.082L26.7891 248.382L23.8291 298.087H24.0631C20.0901 369.482 12.9201 470.039 8.40015 539.176L45.2691 542.292C51.9111 474.506 62.1911 375.736 68.5141 304.525C75.7751 339.195 80.7141 375.093 87.0291 409.465C88.2921 452.491 89.3601 497.47 89.2421 540.369Z" fill="#262626"/>
<path d="M108.935 256.429C104.746 266.059 22.415 270.059 21.315 253.119C20.615 242.339 30.115 232.929 30.115 211.919C30.115 190.909 10.785 164.079 26.535 148.329C31.105 143.759 38.996 140.809 48.615 140.799C49.335 146.409 58.875 155.939 71.175 155.129C80.405 154.519 83.395 146.429 83.655 140.929C84.955 140.949 85.965 140.969 86.595 140.999C119.775 142.429 105.195 180.189 104.875 207.929C104.485 240.389 113.255 246.509 108.935 256.429Z" fill="#C99C47"/>
<path d="M83.655 140.929C83.395 146.429 80.405 154.519 71.175 155.129C58.875 155.939 49.335 146.409 48.615 140.799H48.645C60.755 140.8 76.6 140.819 83.655 140.929Z" fill="#E98862"/>
<path d="M80.9001 140.8L83.4241 269.26C83.4241 269.26 110.261 269.513 115.033 264.741L107.743 198.956C107.743 198.956 92.8511 184.934 94.8921 141.976C94.8881 141.975 86.9201 139.76 80.9001 140.8Z" fill="#287468"/>
<path d="M54.1 140.8L58.118 268.655C58.118 268.655 20.806 271.186 16.033 266.413L27.254 198.35C27.254 198.35 42.173 184.206 40.132 141.25C44.7556 140.568 49.442 140.417 54.1 140.8Z" fill="#287468"/>
<path d="M109.534 215.212L82.3739 216.032L82.2939 212.032L89.5939 211.812L85.9539 140.562C87.3001 140.63 88.6418 140.767 89.9739 140.972L93.5839 211.692L109.094 211.222L109.534 215.212Z" fill="white"/>
<path d="M111.264 230.772L82.684 231.732L82.604 227.732L110.824 226.792L111.264 230.772Z" fill="white"/>
<path d="M56.4339 215.232L25.2939 216.062L25.7339 212.052L45.8739 211.512L44.1839 140.782C45.3239 140.702 46.6639 140.632 48.1839 140.622L49.8739 211.402L56.3039 211.232L56.4339 215.232Z" fill="white"/>
<path d="M57.004 233.452H23.364L23.804 229.452H56.884L57.004 233.452Z" fill="white"/>
<path d="M39.5211 176.983L56.3161 175.457L66.1351 185.826L85.4341 184.065L68.1001 244.13L48.6151 246.87L40.1841 236.458L22.4341 240.609L39.5211 176.983Z" fill="#F3F5FD"/>
<path opacity="0.07" d="M56.3161 175.457L66.1351 185.826L48.6151 246.87L40.1841 236.458L56.3161 175.457Z" fill="black"/>
<path d="M68.3 212.543C75.57 212.543 80.9 201.065 80.9 212.804C80.9 224.543 61.825 225.404 61.825 225.404L62.4679 212.416C62.4679 212.416 66.6419 207.522 68.3379 207.522C70.0339 207.522 68.3 212.543 68.3 212.543Z" fill="#E98862"/>
<path d="M61.6811 231.2L10.4261 228.956C8.71983 228.882 7.05486 228.408 5.56537 227.573C4.07589 226.737 2.80358 225.563 1.85102 224.146C0.898468 222.728 0.29232 221.107 0.0814535 219.412C-0.129413 217.717 0.0609015 215.997 0.637054 214.389L22.1161 154.845L36.2161 179.661L26.1451 207.815L62.6341 209.415L61.6811 231.2Z" fill="#C99C47"/>
</g>
<defs>
<clipPath id="clip0_1114_2">
<rect width="598.137" height="557.819" fill="white"/>
</clipPath>
</defs>
</svg>
